<?xml version="1.0" encoding="UTF-8"?>
<svg width="121.9mm" height="200mm" version="1.1" viewBox="0 0 121.9 200" xmlns="http://www.w3.org/2000/svg">
 <path d="m61.884 0.45177c-3.4786-0.0268-6.9761 0.15757-10.324 0.43305l-0.12247 5.4254c0.55447 1.6143 2.5794 0.85606 3.9129 1.0175l-0.45631 2.3864c-5.1306 0.36497-10.188 0.99355-15.101 2.0112-1.6038 0.36847-3.2704 0.76127-4.8916 1.0666-0.32988-0.69835-0.7897-1.3934-1.0108-2.1373l1.3792-0.39273c0.52289-0.33689 1.1332-0.95484 1.0139-1.7234l-1.2878-4.674-0.13693-0.2248c-5.4921 1.5371-11.012 3.0673-16.146 5.3626l1.9864 5.2008 0.37518 0.2527c1.0107 0.59307 1.839-0.4353 2.8076-0.40722 0.52288 1.8038 0.98278 3.6777 1.5337 5.5061l2.9476 10.753 0.02492 0.47699c-0.51938 0.35444-1.2914 0.32642-1.6107 0.8914-0.2632 0.95453 0.42087 1.6388 0.81391 2.2495 0.55096 0.39304 1.253 1e-5 1.8004-0.0667l1.5968 6.2364-0.55447 0.31573c-0.77205 0.81767 0.25263 1.6213 0.21754 2.4495-0.40357 0.0211-0.87736 0.0211-1.2599 0l-28.067-0.10181-0.18241 0.12301-0.12662 9.4081-0.54724 84.532c-0.20354 8.303 1.2004 16.094 3.7655 23.347 5.3833 15.416 17.876 28.183 33.001 34.637 7.0993 2.9303 14.686 4.7376 22.982 4.7165 7.924 0.25618 15.069-1.3163 21.849-3.7027 12.318-4.4112 23.316-13.437 30.187-24.551 6.4852-10.563 9.6716-22.934 9.1347-36.167l-0.21393-52.39-0.0496-19.379-0.0982-20.171-0.14005-0.18241c-3.1864-0.0983-6.5522 0.0281-9.7106 0l-19.133-0.0284-0.68783-0.091c0.0807-0.55798 0.51205-1.0424 0.39273-1.6495-0.0597-0.34391-0.31196-0.5577-0.57514-0.71211l1.8913-6.2715c0.14739-0.0597 0.28049 0.0564 0.42789 0.0915 0.51236 0.15792 1.1059 2e-5 1.4604-0.36844 0.32285-0.49131 0.51923-0.95145 0.59995-1.5586-0.13687-0.82819-1.0809-0.82777-1.5968-1.2278l0.47698-1.5901 2.6076-9.2786c0.55797-1.9582 1.1128-3.9097 1.79-5.8153l2.0526 0.81801c0.49482-0.0912 0.8461-0.38981 1.1198-0.66353l1.9332-4.7091 0.0212-0.34417c-1.8354-0.85627-3.7444-1.6282-5.657-2.2949l-9.7313-3.162c-0.28425 0.0737-0.52306-0.29829-0.74415 0l-1.4004 4.8569 0.21808 0.90175c0.35795 0.82468 1.3684 0.82458 2.1089 1.172-0.23863 0.72993-0.70565 1.5021-1.1338 2.1688-6.1939-1.7687-12.651-2.8808-19.322-3.4142l-0.11575-0.0951c-0.0491-0.77204-0.36487-1.544-0.29818-2.3125 1.0458-0.021 2.0354 0.2915 3.0215 0.0915 0.48779-0.24214 0.85273-0.7021 1.0563-1.1829l0.13694-5.0257c-3.2742-0.5685-6.734-0.80626-10.213-0.833z" stroke="#000" stroke-width=".89838"/>
 <g fill="#ffed00">
  <g stroke-width="3.5093">
   <path d="m60.989 3.64c0.48428 0.15441 1.1054 0.12283 1.6564 0.0456 0.23512-0.76152 0-1.7476 0.21407-2.4881 0.90891-0.10177 1.8073-0.0316 2.6881 0.18248 0.0597 0.75801-0.25969 1.4388-0.21407 2.2038l0.11581 0.11932c0.58956 0 1.0809 0.25618 1.6845 0.16143 0.16143-0.68081 0.27373-1.3827 0.32988-2.1126 0.0351-0.0877 0.0772-0.25618 0.23863-0.31233 1.1581 0.12282 2.4741 0.22459 3.6672 0.39655 0.0491 1.5336-0.10528 3.025-0.13335 4.6323-2.0249-0.0632-3.9901-0.34742-6.0886-0.37901-4.3936-0.21407-8.6118-0.0246-12.942 0.19301-0.0386-1.5406-0.0386-3.0987 0-4.6954l0.15441-0.1123c1.2879-0.0702 2.6811-0.11931 3.8883-0.1895l0.18248 2.4179c0.54394 0.0912 1.2283-0.0176 1.7792-0.0176 0.02457-0.38602-0.07019-0.8668-0.02105-1.33l-0.04913-1.123c0.92295-0.0667 1.9266-0.13686 2.8215-0.0667z"/>
   <path d="m34.453 4.506c0.44919 1.4739 0.81767 2.9654 1.1791 4.4744-4.8463 1.337-9.6506 2.8952-14.353 4.7025l-1.6739-4.2568c0.7545-0.38953 1.6178-0.81416 2.5091-0.9791 0.36146 0.64572 0.41059 1.502 0.80012 2.1723 0.35795 0.15792 0.65975-0.24565 1.0142-0.3018 0.20354 0 0.42463-0.21056 0.62816-0.30531-0.18599-0.76854-0.51236-1.4739-0.75801-2.1898 0.74046-0.38602 1.5301-0.59307 2.3161-0.83872 0.28776 0.76853 0.46323 1.5546 0.80363 2.26 0.4913-0.15089 1.0388-0.30179 1.5371-0.51937-0.09124-0.77205-0.39304-1.5336-0.58956-2.2916 0.69484-0.24215 1.3827-0.52289 2.1477-0.6036 0.38602 0.73344 0.30531 1.6424 0.88434 2.1968 0.48779-0.14739 1.116-0.31233 1.5581-0.55447-0.27022-0.69835-0.51587-1.4388-0.67028-2.2038 0.84925-0.30882 1.7897-0.55096 2.6671-0.76152"/>
   <path d="m90.861 5.636c-0.0807 0.76854-0.38602 1.4985-0.57553 2.274 0.49482 0.23161 1.0458 0.38602 1.5406 0.57201 0.57201-0.57201 0.57201-1.4985 0.94751-2.2354l2.0986 0.63518-0.0175 0.34742-0.62465 1.8634c0.37198 0.42463 1.0423 0.36497 1.5195 0.67028 0.49131-0.42112 0.31935-1.0002 0.62466-1.488 0.0597-0.24916 0.11932-0.58254 0.32286-0.77906 0.71238 0.28074 1.5336 0.4141 2.1863 0.87381l-0.72643 2.1933c0.50534 0.30882 1.0949 0.58605 1.6424 0.62114 0.29128-0.70186 0.63518-1.4213 0.8703-2.1477 0.78258 0.17898 1.6388 0.54745 2.4039 0.91242l-0.0211 0.31233-1.6634 4.0041c-4.6744-1.867-9.419-3.5268-14.279-4.8885 0.24916-1.5371 0.77555-3.0426 1.2774-4.513 0.81767 0.24215 1.6459 0.49131 2.4741 0.77205"/>
  </g>
  <path d="m67.033 7.402 0.42813 2.2775 2.5793 15.364-4.3972-0.39655c-0.43516-3.4251 0.67378-8.2434-3.2672-9.5523-0.41761-0.23864-1.0037-0.186-1.5476-0.15441-1.5792 0.2667-2.7513 1.6459-3.3338 3.0601-0.6808 2.0529-0.32988 4.2533-0.57553 6.4992-1.316 0.19652-2.6039 0.19652-3.9655 0.33338l1.0247-5.9448 2.1056-11.486 0.07019-0.11581c3.7023-0.15441 7.1835-0.15441 10.879 0.11581" stroke="#000" stroke-width=".39304"/>
 </g>
 <path d="m63.102 8.7255c-0.11721 7e-3 -0.3401-0.0316-0.39272 0.21756-0.46323 0.9826-0.44225 2.1123-0.37206 3.2142h1.3963c-0.10528-0.91592 0.21799-1.8141 0.0811-2.7791-0.13686-0.31233-0.35114-0.62108-0.7126-0.65266z" stroke="#000" stroke-width=".39304"/>
 <path d="m59.838 8.7597c-0.17496 7e-3 -0.3472 0.0812-0.47747 0.23926-0.38953 0.95102-0.11273 2.1512-0.2496 3.1233 0.50183-0.15792 1.0217 0.11932 1.5095 0l-0.032-2.7791c-0.0737-0.36388-0.41631-0.59658-0.75033-0.58342z" stroke="#000" stroke-width=".39304"/>
 <g fill="#ffed00">
  <path d="m54.704 10.481c-0.03509 0.48077-0.14037 1.0247-0.23863 1.5511l-0.17546 0.0877c-6.3202 0.43516-12.402 1.4107-18.315 2.818-0.20354-0.48428-0.54043-0.91593-0.67028-1.4423 6.1764-1.6845 12.693-2.5934 19.399-3.0145" stroke="#000" stroke-width=".39304"/>
  <path d="m87.217 13.833c-0.0842 0.52289-0.45972 1.0212-0.68782 1.4634-4.3059-1.1791-8.8048-1.8775-13.3-2.5548l-4.5445-0.55096c-0.20003-0.52991-0.28777-1.137-0.28777-1.6985 6.5027 0.52639 12.823 1.6002 18.82 3.3408" stroke-width="3.5093"/>
  <g stroke="#000" stroke-width=".39304">
   <path d="m34.453 13.466 5.1446 10.693c0.4141 0.84925 0.91593 1.7652 1.2458 2.66l-2.7864 0.69484c-0.78608-2.2284-1.4002-4.5832-2.5618-6.6361-0.63518-0.92645-1.6248-1.695-2.8601-1.6459-1.1791-0.0912-1.9477 0.69835-2.5302 1.5546-1.2072 3.0882 0.88434 5.9026 1.4107 8.8189l-2.3232 0.85276-0.14037-0.17897-2.7934-10.349c-0.59658-2.0564-1.2107-4.0778-1.6318-6.1939l0.21056-0.16143c2.7548-0.9054 5.4815-1.9161 8.296-2.6495z"/>
   <path d="m98.075 14.267-1.3756 4.7691-2.639 9.3347-0.71239 2.453-0.13335 0.0702-2.3512-0.89487c0.57903-2.1091 1.5371-4.2322 1.9231-6.4641 0.18951-1.5616-0.4913-2.9934-1.8073-3.7199-0.96506-0.40357-2.1091-0.0597-2.9654 0.36146-2.1302 2.0108-2.5442 5.0534-3.6742 7.6538l-3.1198-0.8317v-0.17897l6.608-12.402 1.6494-3.0917c2.9443 0.8317 5.7974 1.8143 8.5978 2.9408"/>
   <path d="m54.183 13.343c-0.21056 1.695-0.53341 3.3935-0.88434 5.0639-1.0142 0.15441-2.0389 0.20003-3.0882 0.30531l-0.48779-4.9306c1.4423-0.24916 3.0075-0.43866 4.4603-0.43866"/>
   <path d="m72.769 13.811c-0.15792 1.6494-0.4527 3.3338-0.67028 4.9867l-0.11229 0.0667-2.267-0.3404c-0.28075-1.709-0.69484-3.4742-0.86329-5.1832 1.2774 0.10528 2.6214 0.25267 3.9129 0.47025"/>
  </g>
 </g>
 <g stroke="#000" stroke-width=".39304">
  <path d="m31.174 13.384c-0.19551 3e-3 -0.36374 0.0779-0.48678 0.27337-0.21758 0.95102 0.32673 2.0774 0.5829 3.0354 0.49832 0 0.88399-0.37529 1.3648-0.39634 0.10177-0.53342-0.27678-0.95099-0.35398-1.4423-0.34391-0.47025-0.31941-1.1408-0.82476-1.4356-0.0987-0.023-0.19328-0.0362-0.28215-0.0346z"/>
  <path d="m91.388 13.782c-0.16494 0.0526-0.33731 0.0912-0.46716 0.26665-0.36146 0.89136-0.94397 1.6845-0.97204 2.6882 0.54745-0.0211 0.88803 0.36845 1.3828 0.36845l0.0563-0.36845c0.3018-0.6071 0.48394-1.3438 0.6594-2.0386l-0.0558-0.49505c-0.16494-0.23864-0.30178-0.42116-0.60356-0.42116z"/>
  <path d="m48.971 13.833c0.24214 1.6283 0.379 3.3444 0.44217 4.9867-2.5653 0.34742-5.0534 0.80713-7.5906 1.2318l-0.92646-4.9271 0.34391-0.1509c2.5478-0.42813 5.0885-0.89838 7.731-1.1405" fill="#ffed00"/>
  <path d="m81.354 15.298c-0.13335 1.7055-0.57202 3.3093-0.84223 4.9586l-0.0807 0.0737c-0.85977-0.24916-1.8178-0.35444-2.653-0.64922-1.6143-0.23864-3.2952-0.42814-4.92-0.73345 0.16494-1.6845 0.43867-3.3689 0.7159-5.0253 2.66 0.30882 5.2218 0.83171 7.7801 1.3756" fill="#ffed00"/>
  <path d="m28.628 14.142c-0.17788-6e-3 -0.33459 0.13309-0.51882 0.24495-0.30882 0.73695 0.11257 1.6285 0.36174 2.3058 0.0386 0.35795 0.09127 0.56875 0.2527 0.88108 0.36146-0.12282 0.74018-0.24592 1.0981-0.36174 0.64571-0.19301-0.014-0.80728-0.04909-1.1968-0.23863-0.67028-0.28078-1.628-1.109-1.8701-0.01207-2e-3 -0.0238-3e-3 -0.03566-3e-3z"/>
  <path d="m93.927 14.606c-1.0738 0.55096-1.007 1.9616-1.4702 2.9021 0.51586 0.0912 0.9859 0.45294 1.4702 0.49506l0.45632-1.5337c0-0.54745 0.50906-1.0424 0.15813-1.5828-0.15792-0.13335-0.40038-0.24901-0.61445-0.2806z"/>
 </g>
 <g fill="#ffed00">
  <g stroke="#000" stroke-width=".39304">
   <path d="m40.186 15.255c0.34742 1.6108 0.61413 3.3233 0.85978 4.9832l-2.3161 0.4527-2.2319-4.6498c1.2037-0.36145 2.46-0.51586 3.6883-0.78608"/>
   <path d="m85.927 16.407c-0.74397 1.5371-1.5722 3.0566-2.3863 4.5972-0.76854-0.0667-1.5266-0.34391-2.2986-0.49481l0.9054-5.0148c1.2704 0.27022 2.5372 0.6036 3.7795 0.91242"/>
   <path d="m53.106 19.184c-0.29478 1.9126-0.6036 3.8427-0.95804 5.7342-1.709 0.16142-3.404 0.36847-5.085 0.64922l-0.9826-5.464c2.1723-0.47376 4.5375-0.65975 6.7659-0.91944z"/>
   <path d="m76.152 20.202 0.0526 0.0912-0.91944 5.4745-4.3796-0.63518c-0.51236-1.8459-0.67379-3.8883-1.0738-5.8149l0.0562-0.0316c2.0986 0.27022 4.2112 0.52991 6.2641 0.91593"/>
   <path d="m46.287 25.629-0.17897 0.11932-4.4849 0.85276-2.5618-5.1762c2.0038-0.54745 4.148-0.91593 6.2501-1.2212z"/>
   <path d="m83.052 21.668 0.0667 0.0807-2.646 5.0113c-1.4809-0.19301-2.9232-0.61412-4.4182-0.83521 0.26319-1.8634 0.53341-3.7374 0.91592-5.5728 2.0916 0.27373 4.0462 0.92295 6.0816 1.316"/>
  </g>
  <path d="m94.474 32.206c0.27022 0.18599 0.21056 0.51236 0.12633 0.7931-0.16844 0.21407-0.46322 0.36848-0.69835 0.25267-14.767-6.5238-33.524-8.7522-50.295-5.0569-5.3341 1.0949-10.419 2.7899-15.381 4.7305-0.16143-0.0772-0.32286 0.0491-0.47025-0.0772-0.18248-0.24214-0.32987-0.61413-0.13335-0.89136l0.28074-0.21056c13.9-5.7237 30.671-8.1696 46.544-5.3552 7.0081 1.1019 13.662 3.1478 20.028 5.8149" stroke-width="3.5093"/>
  <path d="m85.927 39.125c1.7196 0.60711 3.383 1.3511 4.9937 2.1056 0.23162 0.46323-0.13335 0.94751-0.25267 1.3792l-0.38251 0.12283c-11.265-4.6919-23.923-7.1625-37.199-5.7763-7.552 0.84223-14.627 2.9268-21.487 5.4956-0.49481-0.0456-0.45972-0.63168-0.63869-0.97208-0.02106-0.24916 0-0.46674 0.14388-0.61062 14.616-6.429 33.981-8.1065 49.836-3.2742z" stroke="#000" stroke-width=".39304"/>
 </g>
 <g stroke-width="3.5093">
  <path d="m30.826 43.581 47.972 0.10528 19.677-0.0351h21.838l0.0877 9.7664 0.0491 18.34c-3.4216 1.8389-8.1205 2.7583-11.96 1.2248-4.7726-1.7792-9.3102-4.534-14.971-3.6497-5.4148 0.83171-9.8085 4.134-15.476 4.355-6.8045-0.18599-11.609-5.5306-18.736-4.6568-6.3413 1.0072-11.581 5.9307-18.512 4.1515-6.0079-1.4248-11.458-5.4429-18.252-3.6602-5.1341 1.0282-9.2716 4.7972-15.093 3.9795-2.0775-0.27021-3.9585-1.0423-5.7868-1.867l-0.06317-0.40006 0.03509-11.353 0.20354-16.381 0.28074-0.0702 21.765 0.13335z" fill="#0090d1"/>
  <path d="m81.354 73.949c6.1378-1.4283 11.96-5.7482 18.862-3.397 4.8534 1.2949 9.075 4.7586 14.683 3.769 1.9477-0.27373 3.7514-0.91593 5.5026-1.709l0.0562 1.0037 0.0772 30.173c-4.2638 1.9687-10.349 2.0319-14.595 0-4.1761-1.5441-8.4644-4.0603-13.406-2.4986-0.9054 0.21055-1.8354 0.47726-2.7092 0.82819-0.0351-0.0386-0.0597-0.0983-0.14037-0.0983v0.12634c-4.1831 1.495-8.2293 3.6111-13.139 3.1478-6.2816-0.45621-10.942-5.3973-17.669-4.2357-4.9271 0.81416-8.8575 4.1726-14.055 4.2357-8.4434 0.58254-14.441-6.7028-22.993-3.8497-4.1901 1.2774-7.9275 3.6672-12.64 3.7409-2.7829 0-5.2955-0.58956-7.6748-1.509l-0.11932-0.14388 0.20354-31.043c0.95453 0.21758 1.881 0.76152 2.8566 1.0598 2.9934 1.0563 6.8537 1.0177 9.7488-0.17547 4.2919-1.5862 8.3416-4.0392 13.441-3.4812 6.7133 0.7545 12.195 5.7903 19.392 4.0568 5.4675-1.1019 9.9383-5.2254 16.122-4.1164 6.0535 1.323 11.325 5.9342 18.196 4.1164" fill="#fff"/>
  <path d="m45.288 106.01c6.8607-0.39304 12.265-6.3273 19.55-3.7585 4.4638 1.4002 8.3662 4.1129 13.535 3.8322 6.2466 0 10.865-3.9585 16.901-4.4779 5.1166-0.1895 9.1277 2.8811 13.802 3.976 3.7304 0.91592 7.9872 0.37549 11.374-0.95804l0.10528 0.0386 0.14739 30.45-0.0246 0.37901c-4.0146 1.709-9.5839 1.9301-13.651 0.15441-4.6604-1.6353-9.4014-4.4463-14.809-2.7794-5.278 1.2177-9.7945 5.0148-15.771 3.8462-5.664-1.4178-10.693-4.6568-17.055-4.1024-5.2078 0.61062-9.626 3.0356-14.602 4.1936-8.0152 0.82819-13.434-6.057-21.628-4.1936-4.8148 1.0703-8.8785 3.8988-14.027 4.1024-2.8145 0.21757-5.4815-0.47376-7.9275-1.4178l-0.06317-0.38953 0.24916-30.419c0.91593 0.17547 1.8248 0.56851 2.7794 0.81416 3.5198 0.91944 7.7731 0.78258 11.051-0.58605 4.0217-1.1756 7.5871-3.8567 12.258-3.1373 5.2534 0.78609 9.5418 4.0041 14.957 4.3972z" fill="#0090d1"/>
  <path d="m46.287 137.2c5.9202-1.5897 11.609-5.1657 18.252-3.5549 4.3586 0.99664 8.2609 3.0601 12.637 3.955 8.117 0.76152 13.778-6.3308 22.077-4.0217 5.5271 1.5652 10.591 4.9937 16.992 3.8672 1.5336-0.30531 2.9794-0.71239 4.4322-1.2072 0.43165 11.647-2.3161 22.74-7.5871 32.236-1.1721 0.24916-2.3688-0.0211-3.4286-0.23161-4.3129-1.1089-7.931-3.8883-12.577-4.1094-4.8674-0.40006-8.8118 2.0249-13.058 3.4286-2.7408 0.89137-6.1307 1.6248-9.0926 0.61764-5.3727-1.5897-10.331-5.0885-16.469-3.9866-4.6358 0.86328-8.5908 3.2777-13.153 4.2813-8.0152 1.0844-13.497-5.457-21.463-4.3621-5.3798 0.56149-9.419 4.5621-15.086 4.2849-5.285-9.5874-7.9415-20.326-7.6187-32.268 1.7476 0.42814 3.4567 1.1616 5.3973 1.2634 7.359 0.9054 12.486-4.0287 19.41-4.3936 7.3064 0.10177 12.735 6.2816 20.336 4.2006" fill="#fff"/>
  <path d="m79.796 169.31c5.4956-0.63167 9.8752-3.9444 15.367-4.4884 0.21056 0.0561 0.4527 0.10878 0.63168 0 6.236-0.24566 10.591 4.4708 16.767 4.5235-6.5905 11.616-17.669 20.845-29.899 25.499-5.3833 2.1196-11.212 3.3689-17.301 3.8778-14.048 1.0247-26.643-2.7162-37.493-9.6962-7.4432-5.113-14.346-11.914-18.634-19.806 6.973-0.21758 12.044-6.1202 19.491-4.1585 6.0255 1.4669 11.546 5.7026 18.34 3.7655 5.8465-1.7827 11.718-5.8079 18.343-3.3865 4.8288 1.2353 8.9312 4.4814 14.388 3.8708" fill="#0090d1"/>
  <path d="m46.541 192.1c0 0.0562 0 0.0562-0.02807 0.0702l-0.07019-0.0877c0.04211 0 0.07019 0 0.09826 0.0175"/>
  <path d="m92.532 33.858c-0.48779 2.1617-1.144 4.2533-1.8985 6.3413-0.78258-0.12985-1.5125-0.57553-2.1863-0.91593-11.693-4.6954-25.772-6.3097-39.164-4.2919-6.1588 0.85978-11.967 2.6285-17.554 4.8323l-0.10528-0.0316c-0.56851-2.0494-1.0949-4.1901-1.4879-6.2711 9.1803-3.9796 19.273-5.8219 29.931-6.1483 11.633 0.18249 22.596 2.1126 32.465 6.4852" fill="#ffed00"/>
 </g>
 <g stroke-width="3.5093">
  <path d="m32.063 38.08c0.46674 0.21758 0.97208 0.20354 1.5195-7e-3 0.52289-0.20705 0.89136-0.56149 1.0668-1.0352 0.17546-0.47727 0.1509-1.0177-0.08422-1.6248-0.24916-0.6036-0.61413-1.0247-1.0563-1.2458-0.46674-0.21758-0.97559-0.22109-1.4985 0-0.30531 0.11581-0.54745 0.26671-0.72994 0.47025-0.16143 0.14388-0.27022 0.30882-0.34391 0.51937-0.08422 0.21758-0.12634 0.42814-0.14739 0.65975 0 0.30531 0.0737 0.65273 0.2246 1.0388 0.25267 0.59659 0.58605 1.0107 1.0493 1.2248m-0.41059-2.6495c0.1123-0.28425 0.3018-0.49481 0.62115-0.62115 0.3018-0.1158 0.58254-0.10528 0.85978 0.0386 0.25618 0.13687 0.48428 0.42463 0.66326 0.85276 0.16143 0.43165 0.20705 0.81416 0.10177 1.0949-0.08773 0.30531-0.29478 0.50183-0.58254 0.63518-0.28776 0.10528-0.58956 0.0948-0.87031-0.0526-0.29127-0.13335-0.50534-0.42813-0.66677-0.85276-0.1895-0.43866-0.22109-0.80012-0.12634-1.0949"/>
  <path d="m36.874 36.245c0.43515 0.24214 0.94049 0.28074 1.4985 0.0807 0.55447-0.16844 0.91944-0.48779 1.1405-0.95102 0.2246-0.46322 0.23512-1.0037 0.01404-1.6353-0.20003-0.62816-0.52289-1.0633-0.97559-1.309-0.43515-0.25267-0.94751-0.28425-1.502-0.10177-0.29127 0.0807-0.54745 0.23863-0.75099 0.42112-0.16845 0.13335-0.26671 0.29478-0.36497 0.49832-0.10177 0.21407-0.15441 0.42462-0.18248 0.64922-0.01404 0.30882 0.03509 0.64922 0.14037 1.0458 0.22109 0.61764 0.53341 1.0528 0.9826 1.302m-0.23161-2.6741c0.11581-0.28425 0.32286-0.47024 0.6422-0.58254 0.31584-0.0947 0.59307-0.0772 0.84925 0.0948 0.26671 0.15441 0.47025 0.45621 0.60711 0.89838 0.16143 0.44217 0.16494 0.8282 0.04211 1.1054-0.10528 0.29127-0.32987 0.48428-0.62466 0.58254-0.31233 0.10177-0.6036 0.0562-0.86329-0.0983-0.27022-0.16844-0.48428-0.46673-0.62115-0.90539-0.14739-0.4492-0.15441-0.81767-0.03158-1.0949"/>
  <path d="m41.791 34.735c0.4141 0.27022 0.91944 0.34742 1.4844 0.19652 0.55798-0.12984 0.96506-0.42813 1.2142-0.86329 0.23161-0.45621 0.28074-0.98962 0.11581-1.6318-0.1509-0.65273-0.44568-1.116-0.8668-1.3897-0.44919-0.26671-0.92646-0.34041-1.495-0.20354-0.31233 0.0772-0.57202 0.20003-0.7931 0.35444-0.14739 0.12633-0.28776 0.29829-0.39304 0.48428-0.12282 0.19301-0.19301 0.4141-0.2281 0.63518-0.05264 0.3018-0.02106 0.65624 0.06317 1.0528 0.17196 0.62466 0.46674 1.0844 0.89838 1.3651m-0.06668-2.6811c0.15441-0.27372 0.379-0.44919 0.70537-0.5299 0.31233-0.0772 0.59307-0.0281 0.84574 0.13686 0.25267 0.186 0.41059 0.49832 0.54394 0.95102 0.10528 0.47025 0.09475 0.82469-0.04562 1.1054-0.15441 0.27373-0.3755 0.4527-0.67378 0.52289-0.30531 0.0912-0.58956 0.0386-0.85627-0.14739-0.25267-0.17898-0.42814-0.49832-0.54745-0.94751-0.10528-0.44919-0.09475-0.81767 0.02807-1.0914"/>
  <path d="m46.802 33.572c0.38251 0.3018 0.87732 0.41059 1.4599 0.30531 0.55447-0.0912 0.99664-0.35444 1.2669-0.78257 0.27373-0.42814 0.35795-0.96506 0.24916-1.6143-0.11581-0.64571-0.38251-1.13-0.78257-1.4353-0.4141-0.30881-0.90189-0.42111-1.4564-0.30881-0.32636 0.0491-0.59658 0.14739-0.81416 0.29829-0.17196 0.11229-0.31584 0.25617-0.44217 0.4527-0.12984 0.18248-0.21056 0.39304-0.27022 0.6071-0.06668 0.31233-0.06668 0.66326 0 1.0528 0.10879 0.64572 0.36146 1.116 0.78959 1.4248m0.14037-2.6706c0.15792-0.26319 0.39304-0.42111 0.70888-0.48077 0.32286-0.0597 0.6036 4e-3 0.84223 0.20354 0.23512 0.19652 0.38602 0.52288 0.47726 0.97207 0.0772 0.47376 0.03158 0.84224-0.14388 1.0984-0.14037 0.27723-0.3755 0.43164-0.6808 0.49481-0.31935 0.0456-0.60009-0.0175-0.84223-0.21758-0.24214-0.19652-0.40357-0.53341-0.48077-0.9826-0.09124-0.45621-0.04913-0.8282 0.11932-1.0879"/>
  <path d="m51.856 32.778c0.38602 0.33338 0.87732 0.48077 1.4458 0.4141 0.58254-0.0667 1.0282-0.29127 1.337-0.69835 0.28425-0.39655 0.42112-0.92997 0.3404-1.5897-0.05966-0.64922-0.30531-1.1546-0.66677-1.4985-0.38251-0.32636-0.8668-0.47024-1.4528-0.40708-0.30882 0.0316-0.59658 0.1123-0.81065 0.25267-0.19301 0.0983-0.3404 0.23513-0.48779 0.41059-0.12984 0.17898-0.24565 0.38252-0.3018 0.6036-0.09475 0.28776-0.1123 0.63518-0.07019 1.0493 0.07019 0.64571 0.29127 1.1335 0.66677 1.4634m0.33689-2.646c0.16845-0.24916 0.42813-0.38953 0.76503-0.43165 0.31584-0.0386 0.58956 0.0562 0.81416 0.25618 0.21407 0.21758 0.35093 0.54394 0.38251 1.0247 0.06668 0.45621-0.0035 0.81416-0.19301 1.0809-0.16845 0.25267-0.40708 0.40357-0.72292 0.42112-0.31233 0.0456-0.60009-0.0456-0.81065-0.2632-0.23863-0.21758-0.3755-0.56149-0.42814-1.0212-0.0386-0.45972 0.01053-0.81416 0.19301-1.0668"/>
  <path d="m56.974 32.337c0.36146 0.34742 0.8317 0.51938 1.4213 0.49481 0.59307-0.0281 1.0352-0.21758 1.3686-0.6036 0.3369-0.379 0.49481-0.90891 0.45621-1.5722-0.0211-0.65624-0.20003-1.1721-0.57552-1.5371-0.35444-0.3404-0.83522-0.51587-1.4107-0.48779-0.32988 0-0.61062 0.0632-0.84574 0.17546-0.18599 0.0948-0.34391 0.21758-0.48779 0.39305-0.16143 0.16493-0.27373 0.35093-0.37199 0.56499-0.08071 0.28777-0.12634 0.64571-0.12634 1.0563 0.02807 0.6422 0.21758 1.1616 0.57202 1.516m0.51587-2.6355c0.1895-0.24215 0.45621-0.36146 0.77906-0.37901 0.31935-7e-3 0.59658 0.0842 0.80012 0.31935 0.20705 0.22459 0.31584 0.55798 0.32286 1.0282 0.02456 0.47727-0.06668 0.83522-0.24214 1.0879-0.20705 0.23161-0.45972 0.35794-0.78959 0.37198-0.31233 0.014-0.57552-0.10177-0.78608-0.33338-0.22109-0.23162-0.32987-0.56851-0.34391-1.0423-0.02807-0.45972 0.05966-0.81065 0.25969-1.0528"/>
  <path d="m62.132 32.227c0.33689 0.379 0.78608 0.56851 1.3756 0.57903 0.57552 0.014 1.0423-0.14388 1.4072-0.51586 0.34743-0.36146 0.5264-0.87733 0.54044-1.5336 0.0211-0.66325-0.14739-1.1791-0.48429-1.5651-0.34391-0.37901-0.7931-0.56851-1.3686-0.58606-0.32637-7e-3 -0.62115 0.0351-0.87031 0.14037-0.16845 0.0667-0.34742 0.186-0.52639 0.35093-0.1474 0.15792-0.2632 0.34392-0.35444 0.55096-0.13687 0.28777-0.19652 0.62817-0.20705 1.0493-7e-3 0.63167 0.14388 1.1616 0.48779 1.53m0.65273-2.5934c0.19301-0.22811 0.47025-0.32988 0.81416-0.32286 0.31233 4e-3 0.57903 0.12283 0.76502 0.35093 0.18951 0.24214 0.2983 0.60009 0.27724 1.0598-0.0175 0.47025-0.13686 0.8282-0.33338 1.0528-0.19652 0.23863-0.46323 0.34391-0.7896 0.33338-0.31583-7e-3 -0.56499-0.11931-0.76853-0.37198-0.19652-0.23863-0.29829-0.59307-0.28075-1.0563 7e-3 -0.47376 0.10528-0.81065 0.31584-1.0458"/>
  <path d="m67.274 32.404c0.3018 0.39655 0.76503 0.62115 1.3441 0.67729 0.58255 0.0351 1.0563-0.0947 1.4213-0.44217 0.38251-0.34391 0.59307-0.84574 0.65624-1.4985 0.0597-0.65273-0.0702-1.1896-0.39655-1.5897-0.31233-0.39655-0.77205-0.63167-1.3406-0.66677-0.32987-0.0281-0.61061-4e-3 -0.85276 0.0877-0.19652 0.0562-0.36847 0.16143-0.54394 0.31233-0.17546 0.15441-0.30531 0.32988-0.41409 0.53342-0.14038 0.27372-0.24215 0.61061-0.26671 1.0247-0.0702 0.65624 0.0807 1.1756 0.39304 1.5616m0.80714-2.5372c0.21758-0.22109 0.50183-0.32286 0.84574-0.29128 0.31233 0.0316 0.55798 0.16845 0.74748 0.4141 0.16494 0.25267 0.23863 0.59658 0.20003 1.0598-0.0456 0.48077-0.16494 0.81767-0.40006 1.0423-0.22108 0.22109-0.48779 0.30531-0.78257 0.28426-0.3404-0.0281-0.57553-0.16143-0.77556-0.42112-0.17897-0.25969-0.25969-0.61764-0.20354-1.0598 0.0281-0.48077 0.14388-0.81767 0.36848-1.0282"/>
  <path d="m72.365 32.915c0.28425 0.42463 0.72643 0.6808 1.2984 0.76854 0.57202 0.10528 1.0563-0.0246 1.4704-0.32988 0.38602-0.32285 0.64922-0.80363 0.74397-1.4388 0.10177-0.65624 7e-3 -1.2037-0.26671-1.6248-0.29478-0.42462-0.72291-0.67729-1.2844-0.76853-0.32988-0.0491-0.61764-0.0351-0.88084 0.0211-0.18599 0.0597-0.39655 0.14388-0.56499 0.28777-0.16494 0.13686-0.32286 0.3053-0.43516 0.48779-0.16142 0.2667-0.28776 0.59658-0.33689 1.0072-0.10879 0.6422-0.021 1.1756 0.25618 1.5897m1.0002-2.4741c0.25267-0.19301 0.53341-0.2667 0.85627-0.23161 0.32636 0.0597 0.57202 0.21056 0.7159 0.47025 0.16493 0.24916 0.21055 0.61763 0.13686 1.0809-0.0702 0.46674-0.23161 0.78959-0.47376 1.0037-0.23161 0.20354-0.49481 0.28074-0.80713 0.22109-0.32286-0.0456-0.56149-0.21056-0.74398-0.47025-0.16142-0.2632-0.21055-0.63167-0.12633-1.0809 0.0702-0.46674 0.21407-0.79662 0.44217-0.99314"/>
  <path d="m77.416 33.811c0.23863 0.42112 0.64571 0.71941 1.2142 0.85978 0.57552 0.14037 1.0668 0.0632 1.4879-0.21758 0.42112-0.27723 0.71239-0.73344 0.87382-1.3756 0.14739-0.64221 0.0948-1.2002-0.16143-1.6424-0.25618-0.43866-0.64571-0.72642-1.2037-0.8703-0.32637-0.0702-0.61062-0.0772-0.87733-0.0386-0.21406 0.0351-0.39304 0.11931-0.58956 0.2281-0.18248 0.13686-0.33689 0.29127-0.4913 0.46674-0.17547 0.24214-0.30882 0.5685-0.4141 0.9826-0.14037 0.61413-0.0983 1.1475 0.16143 1.6073m1.1861-2.4004c0.25267-0.17898 0.52991-0.23162 0.85978-0.16494 0.30882 0.0842 0.52991 0.2632 0.6773 0.52991 0.13335 0.26319 0.15792 0.61763 0.0632 1.0844-0.12633 0.46674-0.3053 0.76854-0.55447 0.96506-0.2667 0.17195-0.54745 0.24565-0.85626 0.16142-0.31233-0.0702-0.54044-0.25266-0.66326-0.52639-0.15441-0.28074-0.17898-0.65624-0.0667-1.1019 0.1123-0.43866 0.28776-0.77906 0.54043-0.94751"/>
  <path d="m82.397 35.103c0.21758 0.45972 0.59658 0.77205 1.144 0.94751 0.56149 0.18599 1.0633 0.14388 1.495-0.1123 0.44919-0.24214 0.76503-0.6808 0.96506-1.309 0.20705-0.63518 0.19652-1.1791-0.0175-1.6424-0.23161-0.45972-0.61061-0.77906-1.151-0.95453-0.31583-0.10177-0.6036-0.12984-0.8703-0.10528-0.20354 0.0176-0.39304 0.0877-0.58606 0.18951-0.20353 0.11931-0.38251 0.26319-0.52639 0.42462-0.20003 0.23512-0.38251 0.55447-0.47727 0.94751-0.20003 0.62115-0.1895 1.151 0.0246 1.6143m1.3546-2.3056c0.26671-0.16494 0.55096-0.1895 0.87031-0.0877 0.31583 0.0912 0.5299 0.29127 0.63167 0.56149 0.13686 0.27372 0.11581 0.64571-0.0246 1.0879-0.1474 0.4527-0.34392 0.76152-0.60711 0.92294-0.27724 0.16143-0.57202 0.20354-0.86329 0.10177s-0.51236-0.28425-0.63168-0.57201c-0.13335-0.29829-0.11931-0.66677 0.0281-1.0984 0.13686-0.4527 0.32987-0.75801 0.59658-0.91593"/>
  <path d="m87.257 36.738c0.18248 0.46323 0.565 0.79661 1.13 1.0107 0.53342 0.20705 1.0247 0.18599 1.4739-0.0175 0.46674-0.23161 0.80012-0.64922 1.0458-1.2634 0.24916-0.62465 0.2632-1.1791 0.0526-1.6424-0.18248-0.48077-0.565-0.82117-1.1019-1.0142-0.29127-0.11931-0.58605-0.16493-0.84925-0.1509-0.20705 0.0105-0.39655 0.0597-0.61413 0.15441-0.1895 0.10177-0.37549 0.24214-0.52639 0.39304-0.2246 0.21758-0.39655 0.5264-0.52991 0.90891-0.23512 0.60009-0.25267 1.1475-0.0807 1.6213m1.502-2.2214c0.2632-0.15792 0.55096-0.16493 0.85978-0.0456 0.29829 0.1123 0.50534 0.31233 0.62816 0.60009 0.0983 0.29127 0.0667 0.6422-0.12282 1.0738-0.1509 0.44919-0.37199 0.74046-0.65624 0.89487-0.26671 0.1509-0.54745 0.16143-0.84925 0.0526-0.30531-0.11581-0.50534-0.31584-0.6036-0.61062-0.1123-0.30882-0.0772-0.66326 0.0772-1.0984 0.17898-0.43164 0.39304-0.72642 0.66677-0.8668"/>
 </g>
</svg>
