<?xml version="1.0" encoding="UTF-8"?>
<svg width="509.49" height="755.91" version="1.1" viewBox="0 0 509.49 755.91" xmlns="http://www.w3.org/2000/svg">
 <g stroke-width="5.9912">
  <path d="m450.24 541.06a211.76 211.76 0 0 0 55.957 9.4061v-382.12h-502.24v400.39a195.38 195.38 0 0 0 58.294-13.54c91.245-11.203 100.65-76.567 100.65-76.567 34.15-108.32 45.353-159.54 45.353-159.54 23.545-81.839 33.551-97.117 33.551-97.117h37.684c10.604 202.56 12.941 206.1 12.941 206.1 28.278 71.235 46.491 91.245 46.491 91.245 74.77 33.551 111.26 21.808 111.26 21.808z" fill="#009fe3" data-name="Path 7582"/>
  <path d="m500.86 572.82s-20.61 0.59911-116.59 1.1982c0 0-34.15-1.7374-55.958-25.343 0 0-20.01-20.61-44.754-104.25 0 0 3.5348-29.417-8.807-134.86 0 0 1.7374-12.941 0-87.711h-30.016a46.941 46.941 0 0 0-5.8713 10.005 640.98 640.98 0 0 1-27.08 101.25c-6.4705 60.091-11.803 118.92-11.803 118.92-18.812 127.79-76.567 113.05-76.567 113.05-105.98 8.807-120.12 17.674-120.12 17.674 1.7374 37.085 2.3366 34.749 2.3366 35.348 11.203 50.026 30.615 55.358 30.615 55.358 25.343 19.411 37.085 23.545 37.085 23.545 44.754 13.54 52.423 11.203 52.423 11.203a502.51 502.51 0 0 0 52.962 0.59911c60.631 1.1982 74.77 35.348 74.77 35.348a97.842 97.842 0 0 1 32.951-28.278c44.155-12.941 54.759-8.807 54.759-8.807 48.888-2.9357 58.294-3.5348 58.294-3.5348 54.759-5.8714 73.572-30.016 73.572-30.016 28.877-27.679 30.016-51.824 30.016-51.824 1.7974-37.085 2.3366-46.491 2.3366-46.491l-4.733-2.3366z" fill="#009fe3" data-name="Path 7583"/>
  <path d="m429.03 161.28c-48.289-23.545-245.52-42.417-343.83 0l-0.59912 0.59912a122.22 122.22 0 0 1-8.2678-30.615 102.17 102.17 0 0 0-4.733-30.016c104.79-38.883 283.8-42.957 363.84-1.7374a147.74 147.74 0 0 0-1.7374 32.352 84.835 84.835 0 0 1-4.733 29.417z" fill="#ffd500" data-name="Path 7584"/>
  <path d="m429.87 159.48c-25.403-12.402-88.729-22.647-153.97-24.923-46.252-1.6176-132.58-0.53921-191.54 24.863l-0.35947 0.11982-0.23965 0.29956-0.59912 0.59912 3.1753 0.5392a121.06 121.06 0 0 1-8.0881-30.076v0.41939a106.31 106.31 0 0 0-4.733-30.675l-1.1982 2.3965c109.34-40.56 285.36-41.459 362.29-1.8573l-1.0185-2.037a149.88 149.88 0 0 0-1.7974 32.832 83.529 83.529 0 0 1-4.6132 28.578zm0.95858 2.4564a85.847 85.847 0 0 0 4.8528-30.195 148.95 148.95 0 0 1 1.7374-31.993l0.17973-1.378-1.2581-0.65903c-77.705-39.961-255.28-39.182-365.46 1.6775l-1.6775 0.59912 0.47929 1.7374a98.968 98.968 0 0 1 4.6132 29.417v0.35947a123.15 123.15 0 0 0 8.3876 31.154l1.1982 2.5163 1.9771-1.9771 0.59912-0.59911-0.59912 0.41938c101.13-43.616 296.98-22.107 342.22 0l1.9172 0.95859 0.77885-2.037z" data-name="Path 7585"/>
  <path d="m433.88 101.79c-106.58-32.412-246.12-35.348-356.77 1.7374l-8.9868-28.278c106.58-38.284 262.59-37.085 366.24-2.3366l-0.41938 28.877z" fill="#ffd500" data-name="Path 7586"/>
  <path d="m434.36 100.29c-112.27-34.09-252.71-33.431-357.73 1.7974l1.9771 1.0185-8.9868-28.278-0.95859 1.9771c50.685-18.213 115.93-28.338 183.69-28.458 66.382-0.11982 130.79 9.1066 181.47 26.121l-1.0784-1.4978-0.41938 28.877 2.037-1.4978zm0.4793-28.818c-50.985-17.075-115.81-26.421-182.49-26.301-68.12 0.11982-133.72 10.305-184.77 28.638l-1.4379 0.5392 0.47929 1.4379 8.9868 28.278 0.47929 1.4978 1.4978-0.47929c104.49-34.988 244.14-35.707 355.82-1.7374l1.9771 0.59911v-2.0969l0.47929-28.818v-1.1383l-1.0784-0.35947z" data-name="Path 7587"/>
  <path d="m430.23 80.042c-106.58-32.352-246.12-35.348-356.77 1.7374l-5.8713-6.4705c106.58-38.284 262.59-37.085 366.24-2.3366l-3.5348 7.0696z" fill="#ffd500" data-name="Path 7588"/>
  <path d="m430.65 78.544c-112.27-34.09-252.71-33.431-357.73 1.7974l1.6775 0.41938-5.8713-6.4705-0.65903 2.5163c50.685-18.213 115.93-28.338 183.69-28.458 66.382-0.11982 130.79 9.1066 181.53 26.121l-0.89867-2.2167-3.5348 7.0696 1.8573-0.77885zm3.5947-7.0696c-50.985-17.075-115.81-26.421-182.49-26.301-68.12 0.11982-133.72 10.305-184.77 28.638l-2.2167 0.77885 1.5577 1.7374 5.8713 6.4705 0.71894 0.77885 0.95859-0.29956c104.49-34.988 244.14-35.707 355.82-1.7374l1.2582 0.35947 0.59911-1.1982 3.5348-7.0696 0.77885-1.6176-1.7374-0.59912z" data-name="Path 7589"/>
  <path d="m123.66 68.839c3.1753 16.775 3.8344 21.089 3.8344 21.149l3.1154-0.41938s-0.65903-4.3736-3.8344-21.269l-3.0555 0.59912z" data-name="Path 7590"/>
  <path d="m383.61 68c-2.8758 16.835-3.7744 21.089-3.7744 21.149l3.0555 0.65903s0.89868-4.3136 3.7744-21.269l-3.1154-0.5392z" data-name="Path 7591"/>
  <rect transform="rotate(-1.57)" x="208.03" y="62.196" width="3.1154" height="21.508" data-name="Rectangle 3125"/>
  <path d="m297.64 56.437-0.89868 21.448 3.1753 0.11982 0.83876-21.448z" data-name="Path 7592"/>
  <path d="m73.991 128.87s-15.337-56.497-22.946-84.176a193.33 193.33 0 0 1 41.219-10.604c27.08 71.834 30.016 80.641 30.016 80.641-19.411 5.8714-48.289 14.139-48.289 14.139z" fill="#ffd500" data-name="Path 7593"/>
  <path d="m75.908 128.39-22.946-84.176-1.1383 2.3366a195.04 195.04 0 0 1 40.74-10.485l-2.0969-1.2581c26.661 70.756 29.956 80.521 30.016 80.581l1.3181-2.5163c-19.172 5.8114-47.989 14.019-48.229 14.139l2.4564 1.378zm-1.378 2.3965s29.117-8.3277 48.289-14.139l1.9172-0.59912-0.65903-1.9172c-0.11982-0.35947-3.2352-9.7057-30.076-80.761l-0.5392-1.4379-1.5577 0.17974a194.11 194.11 0 0 0-41.699 10.724l-1.6176 0.65903 0.47929 1.6775 22.946 84.176 0.5392 1.9172 1.9172-0.5392z" data-name="Path 7594"/>
  <path d="m85.794 124.2c-7.6687-42.417 5.8713-47.091 22.347-5.8714z" data-name="Path 7595"/>
  <path d="m70.456 80.342c-3.2951-16.056 4.4934-19.232 9.5859-3.0555z" data-name="Path 7596"/>
  <path d="m88.13 74.71c-2.9956-16.116 4.8528-19.112 9.6458-2.8758z" data-name="Path 7597"/>
  <path d="m102.27 33.61s-1.6775-5.6317-5.0925-16.895c0 0-3.9542 1.1982-11.024 3.2951 0 0 0.47929 1.6775 2.0969 7.0696 0 0-1.1383 0.35947-8.2079 2.4564 0 0-0.83876-2.8158-2.037-6.77 0 0-2.5163 0.77885-8.2079 2.4564 0 0 0.65903 2.2766 2.037 6.77 0 0-2.2766 0.65903-7.3092 2.2167 0 0-0.59912-1.9771-1.9172-6.4705 0 0-2.5163 0.77885-8.4475 2.5163 0 0 0.89868 3.1154 1.8573 6.2308 0 0-2.8158 0.83876-7.3092 2.2167 0 0-0.41938-1.4379-1.7974-5.9313l-10.125 3.0555c2.8158 9.2863 4.7929 16.056 4.7929 16.056a329.98 329.98 0 0 1 60.631-18.153z" data-name="Path 7598"/>
  <path d="m101.73 31.873s-1.6775-5.6317-5.0925-16.895c0 0-3.9542 1.1982-11.024 3.2951 0 0 0.47929 1.6775 2.0969 7.0696 0 0-1.1383 0.35947-8.2079 2.4564 0 0-0.83876-2.8158-2.037-6.77 0 0-2.5163 0.77885-8.2079 2.4564 0 0 0.65903 2.2766 2.037 6.77 0 0-2.2766 0.65903-7.3092 2.2167 0 0-0.59912-1.9771-1.9172-6.4705 0 0-2.5163 0.77885-8.4475 2.5163 0 0 0.95859 3.1154 1.8573 6.2308 0 0-2.8158 0.83876-7.3092 2.2167 0 0-0.41938-1.4379-1.7974-5.9313l-10.125 3.0555c2.8158 9.2863 4.7929 16.056 4.7929 16.056a332.65 332.65 0 0 1 60.631-18.213z" fill="#ffd500" data-name="Path 7599"/>
  <path d="m103.23 31.454-5.0925-16.895-0.47929-1.4978-1.4978 0.41938-11.024 3.2951-1.4978 0.41938 0.47929 1.4978 2.0969 7.0696 1.0784-1.9771-8.148 2.4564 1.9771 1.0784-2.037-6.77-0.47929-1.4978-1.4978 0.47929-8.2079 2.4564-1.4978 0.47929 0.47929 1.4978 2.037 6.77 1.0784-1.9771-7.3092 2.2167 1.9771 1.0784-1.9172-6.4705-0.47929-1.4978-1.4978 0.47929-8.4475 2.5163-1.4978 0.47929 0.47929 1.4978 1.8573 6.2308 1.0784-1.9771-7.3092 2.2167 1.9771 1.0185-1.7974-5.9313-0.47929-1.4978-1.4978 0.41938-10.125 3.0555-1.4978 0.47929 0.47929 1.4978 4.7929 16.056 0.47929 1.6775 1.6176-0.71894a336.15 336.15 0 0 1 60.271-18.093l1.7374-0.29956-0.47929-1.6775zm-1.7974-1.0784a339.83 339.83 0 0 0-60.99 18.273l2.1568 0.95859-4.7929-16.056-1.0784 1.9771 10.125-3.0555-1.9771-1.0185 1.7974 5.9313 0.47929 1.4978 1.4978-0.47929 7.3092-2.2167 1.4978-0.41938-0.47929-1.4978-1.8573-6.2308-1.0784 1.9771 8.4475-2.5163-1.9771-1.0784 1.9172 6.4705 0.47929 1.4978 1.4978-0.47929 7.3092-2.2167 1.4978-0.47929-0.47929-1.4978-2.037-6.77-1.0784 1.9771 8.148-2.4564-1.9771-1.0185 2.037 6.77 0.47929 1.4978 1.4978-0.47929 8.2079-2.4564 1.4978-0.41938-0.47929-1.4978-2.0969-7.0696-1.0784 1.9771 11.024-3.2951-1.9771-1.0185 4.7929 15.877 0.23965 0.77885v0.17974l1.2581-1.9172z" data-name="Path 7600"/>
  <path d="m144.93 110.06s-2.8758-58.474-4.3736-87.171a195.56 195.56 0 0 1 42.537-1.4978c11.084 75.968 12.042 85.194 12.042 85.194-20.25 1.6176-50.206 3.4749-50.206 3.4749z" fill="#ffd500" data-name="Path 7601"/>
  <path d="m146.9 109.94-4.3736-87.171-1.6176 2.037a195.58 195.58 0 0 1 42.058-1.4978l-1.7974-1.6775c10.904 74.83 12.042 85.075 12.042 85.134l1.7974-2.1568c-20.01 1.5577-49.847 3.415-50.146 3.4749l2.0969 1.8573zm-1.8573 2.037c0.29956 0 30.195-1.9172 50.206-3.4749l2.037-0.17973-0.23964-1.9771c0-0.35947-1.1383-10.185-12.042-85.314l-0.23965-1.5577-1.5577-0.11982a193.67 193.67 0 0 0-43.017 1.5577l-1.7374 0.29956v1.7374l4.4934 87.171 0.11982 1.9771z" data-name="Path 7602"/>
  <path d="m157.45 107.96c1.6176-43.076 15.817-44.754 23.126-0.95859z" data-name="Path 7603"/>
  <path d="m152.36 60.271c0.17974-16.416 8.5075-17.794 10.005-0.95859z" data-name="Path 7604"/>
  <path d="m170.21 57.395c0.5392-16.416 8.8669-17.674 10.005-0.71894z" data-name="Path 7605"/>
  <path d="m192.92 23.006s-0.41938-5.8713-1.3181-17.614l-11.443 0.83876s0.11982 1.7374 0.5392 7.3691c0 0-1.1982 0.05991-8.5075 0.65903 0 0-0.23964-2.9357-0.5392-7.0696 0 0-2.6361 0.17974-8.5075 0.65903 0 0 0.17974 2.3366 0.53921 7.0696l-7.6088 0.59912s-0.17974-2.037-0.53921-6.77c0 0-2.6361 0.17974-8.807 0.65903l0.4793 6.4705s-2.9357 0.23965-7.6088 0.59912c0 0-0.11983-1.4379-0.4793-6.1709l-10.544 0.77885c0.71894 9.7057 1.2581 16.715 1.2581 16.715a332.79 332.79 0 0 1 63.087-4.7929z" data-name="Path 7606"/>
  <path d="m192.8 21.209s-0.41938-5.8713-1.3181-17.614c0 0-4.1339 0.29956-11.443 0.89868 0 0 0.11983 1.7374 0.53921 7.3691 0 0-1.1982 0.05991-8.5075 0.65903 0 0-0.23965-2.9357-0.5392-7.0696 0 0-2.6361 0.17974-8.5075 0.65903 0 0 0.17973 2.3366 0.5392 7.0696l-7.6088 0.59912s-0.17973-2.037-0.5392-6.77c0 0-2.6361 0.17974-8.807 0.65903l0.47929 6.4705s-2.9357 0.23965-7.6088 0.59912c0 0-0.11982-1.4379-0.47929-6.1709l-10.544 0.77885c0.71894 9.7057 1.2581 16.715 1.2581 16.715a332.79 332.79 0 0 1 63.087-4.7929z" fill="#ffd500" data-name="Path 7607"/>
  <path d="m194.35 21.149-1.3181-17.614-0.11982-1.5577-1.5577 0.11982-11.443 0.89868-1.5577 0.11982 0.11982 1.5577 0.5392 7.3092 1.4379-1.6775-8.5074 0.65903 1.6775 1.4379-0.5392-7.0696-0.11982-1.5577-1.5577 0.11982-8.5074 0.65903-1.5577 0.11982 0.11983 1.5577 0.5392 7.0696 1.4379-1.6775-7.6088 0.59912 1.6775 1.4379-0.53921-6.77-0.11982-1.5577-1.5577 0.11982-8.807 0.65903-1.5577 0.11982 0.11983 1.5577 0.47929 6.4705 1.4379-1.6775-7.6088 0.59912 1.6775 1.4379-0.4793-6.1709-0.11982-1.5577-1.5577 0.11982-10.544 0.77885-1.5577 0.11982 0.11982 1.5577 1.2582 16.715 0.11982 1.7374 1.7374-0.35947a335.22 335.22 0 0 1 62.787-4.733h1.7374l-0.11983-1.6775zm-1.4978-1.4379a339.38 339.38 0 0 0-63.446 4.7929l1.8573 1.4379-1.2581-16.715-1.4379 1.6775 10.544-0.77885-1.6775-1.4379 0.47929 6.1709 0.11982 1.5577 1.5577-0.11982 7.6088-0.59912 1.5577-0.11982-0.11982-1.5577-0.4793-6.4705-1.4379 1.6775 8.807-0.65903-1.6775-1.4379 0.4793 6.77 0.11982 1.5577 1.5577-0.11982 7.6088-0.59912 1.5577-0.11982-0.11982-1.5577-0.53921-7.0696-1.4379 1.6775 8.5075-0.65903-1.6775-1.4379 0.53921 7.0696 0.11982 1.5577 1.5577-0.11982 8.5075-0.65903 1.5577-0.11982-0.11982-1.5577-0.53921-7.3092-1.4379 1.6775 11.443-0.83876-1.6775-1.4379 1.318 17.614 1.6176-1.6775z" data-name="Path 7608"/>
  <path d="m229.76 103.89s2.037-58.534 2.8758-87.231a195.35 195.35 0 0 1 42.477 2.037c4.6731 76.627 4.9128 85.913 4.9128 85.913-20.31-0.11982-50.326-0.71894-50.326-0.71894z" fill="#ffd500" data-name="Path 7609"/>
  <path d="m231.68 103.95 2.8758-87.231-1.7974 1.9172a196 196 0 0 1 41.998 1.9771l-1.6176-1.7974c4.6132 75.489 4.9128 85.734 4.9128 85.853l1.9771-2.037c-20.07-0.11983-49.966-0.71894-50.266-0.71894zm-1.9771 1.9172c0.29955 0 30.255 0.59911 50.326 0.71894h2.037v-1.9771c0-0.35947-0.23964-10.245-4.9128-86.033l-0.11983-1.5577-1.5577-0.23965a198.37 198.37 0 0 0-43.017-2.037l-1.7374 0.17974v1.7374l-2.9357 87.231v1.9771z" data-name="Path 7610"/>
  <path d="m242.34 102.81c5.2123-42.777 19.531-43.256 23.126 0.95859z" data-name="Path 7611"/>
  <path d="m240.43 52.962c1.5577-16.356 9.9453-17.075 10.065-0.11982z" data-name="Path 7612"/>
  <path d="m258.94 52.842c1.8573-16.296 10.305-16.835 10.065 0.11982z" data-name="Path 7613"/>
  <path d="m284.82 21.149s0-5.8713 0.11982-17.674c0 0-4.1339 0-11.503-0.11982v7.3691s-1.1982 0-8.5674-0.05991v-7.0696s-2.6361 0-8.5074-0.059912v7.0696s-2.3366 0-7.6687-0.05991v-6.77s-2.6361 0-8.807-0.059912v6.4705h-7.6687v-6.1709h-10.604c-0.0599 9.6458-0.11982 16.715-0.11982 16.715a333.86 333.86 0 0 1 63.267 0.47929z" data-name="Path 7614"/>
  <path d="m284.82 19.351s0-5.8713 0.11982-17.674c0 0-4.1339 0-11.503-0.11982v7.3691s-1.1982 0-8.5074-0.059912v-7.0696s-2.6361 0-8.5075-0.059912v7.0696s-2.3366 0-7.6687-0.059912v-6.77s-2.6361 0-8.807-0.059912v6.4705h-7.6687v-6.1709h-10.604c-0.0599 9.6458-0.11982 16.715-0.11982 16.715a333.86 333.86 0 0 1 63.267 0.47929z" fill="#ffd500" data-name="Path 7615"/>
  <path d="m286.38 19.351 0.11983-17.674v-1.5577h-13.061l-1.5577-0.11982v1.5577l-0.0599 7.3691 1.5577-1.5577h-8.5075l1.5577 1.4978v-7.0696l0.0599-1.5577h-1.5577l-8.5075-0.059912h-1.5577v8.6273l1.5577-1.5577h-7.6687l1.5577 1.4978v-6.77l0.0599-1.5577h-1.5577l-8.807-0.059912h-1.5577v8.0282l1.5577-1.5577h-7.6687l1.5577 1.4978v-6.1709l0.0599-1.5577h-1.5577l-10.604-0.11982h-1.5577v1.5577l-0.11982 16.775v1.7974l1.7374-0.17974a339.35 339.35 0 0 1 62.967 0.47929l1.7374 0.17974v-1.7374zm-1.378-1.5577a340.36 340.36 0 0 0-63.626-0.47929l1.7374 1.5577 0.11982-16.775-1.5577 1.5577h10.604l-1.5577-1.4978v6.1709l-0.0599 1.5577h1.5577l7.6687 0.059912h1.5577v-8.0282l-1.5577 1.5577h8.807l-1.5577-1.4978v6.77l-0.0599 1.5577h1.5577l7.6687 0.05991h1.5577v-8.6273l-1.4978 1.5577h8.5074l-1.5577-1.4978v7.0696l-0.0599 1.5577h1.5577l8.5075 0.05991h1.5577v-8.9268l-1.4978 1.5577 11.503 0.11982-1.5577-1.5577-0.11983 17.674 1.7374-1.5577z" data-name="Path 7616"/>
  <path d="m313.64 106.52s8.7471-57.935 12.881-86.333a196.34 196.34 0 0 1 41.998 6.8898c-4.1339 76.627-4.9727 85.913-4.9727 85.913-20.13-2.4564-49.906-6.4705-49.906-6.4705z" fill="#ffd500" data-name="Path 7617"/>
  <path d="m315.55 106.82 12.881-86.333-1.9771 1.6775a192.56 192.56 0 0 1 41.519 6.8299l-1.4379-1.9771c-4.074 75.549-4.9727 85.734-4.9727 85.853l2.2167-1.7974c-19.891-2.3965-49.547-6.4705-49.847-6.4705l1.6775 2.2167zm-2.2167 1.6176s29.956 4.074 49.906 6.4705l1.9771 0.23965 0.17973-2.037c0-0.35947 0.89868-10.185 4.9727-86.033v-1.5577l-1.4379-0.41938a193.86 193.86 0 0 0-42.477-6.9498h-1.7374l-0.23965 1.6775-12.881 86.333-0.29956 1.9771 1.9771 0.29956z" data-name="Path 7618"/>
  <path d="m326.28 106.94c10.065-41.878 24.324-40.74 22.826 3.5947z" data-name="Path 7619"/>
  <path d="m330.29 57.156c3.415-16.056 11.863-15.817 10.005 1.0784z" data-name="Path 7620"/>
  <path d="m348.69 59.133c3.7145-15.996 12.162-15.577 10.005 1.2581z" data-name="Path 7621"/>
  <path d="m377.86 30.615s0.71894-5.8114 2.1568-17.494c0 0-4.074-0.47929-11.383-1.4379 0 0-0.23964 1.7374-0.89867 7.3092 0 0-1.1982-0.11982-8.4476-1.0185 0 0 0.35947-2.9357 0.83877-7.0097 0 0-2.6361-0.29956-8.4476-1.0185 0 0-0.29956 2.3366-0.83876 7.0097l-7.6088-0.95859s0.23964-2.037 0.83876-6.7101c0 0-2.6361-0.29956-8.7471-1.0784 0 0-0.41939 3.2352-0.77886 6.4105 0 0-2.9357-0.35947-7.6088-0.95859 0 0 0.17974-1.4379 0.77885-6.111l-10.544-1.3181c-1.1982 9.6458-2.037 16.655-2.037 16.655a336.16 336.16 0 0 1 62.847 7.7286z" data-name="Path 7622"/>
  <path d="m378.04 28.877s0.71894-5.8713 2.1568-17.554c0 0-4.074-0.47929-11.383-1.4379 0 0-0.23965 1.7374-0.89868 7.3092 0 0-1.1982-0.11982-8.4475-1.0185 0 0 0.35947-2.9357 0.89867-7.0097 0 0-2.6361-0.29956-8.4475-1.0185 0 0-0.29956 2.3366-0.83877 7.0097l-7.6088-0.95859s0.23965-2.037 0.83877-6.7101c0 0-2.6361-0.29956-8.7471-1.0784 0 0-0.41938 3.2352-0.77885 6.4105 0 0-2.9357-0.35947-7.6088-0.95859 0 0 0.17973-1.4379 0.77885-6.111l-10.544-1.3181c-1.1982 9.6458-2.037 16.655-2.037 16.655a335.12 335.12 0 0 1 62.787 7.7286z" fill="#ffd500" data-name="Path 7623"/>
  <path d="m379.6 29.057 2.1568-17.554 0.17973-1.5577-1.5577-0.17974-11.383-1.378-1.5577-0.17974-0.17974 1.5577-0.89867 7.3092 1.7374-1.378-8.4476-1.0185 1.378 1.7374 0.83876-7.0097 0.17974-1.5577-1.5577-0.17974-8.4476-1.0185-1.5577-0.17974-0.17974 1.5577-0.83876 7.0097 1.7374-1.378-7.6088-0.95859 1.378 1.7374 0.83877-6.7101 0.17973-1.5577-1.5577-0.17974-8.7471-1.0784-1.5577-0.17974-0.17973 1.5577-0.77885 6.4105 1.7374-1.378-7.6088-0.95859 1.378 1.7374 0.77885-6.111 0.17974-1.5577-1.5577-0.17974-10.544-1.3181-1.5577-0.17974-0.17974 1.5577-2.037 16.655-0.23965 1.7374h1.7974a337.57 337.57 0 0 1 62.488 7.7286l1.6775 0.41938 0.23964-1.7374zm-1.1982-1.7374a341.14 341.14 0 0 0-63.147-7.7885l1.5577 1.7374 2.037-16.655-1.7374 1.378 10.544 1.3181-1.378-1.7374-0.77885 6.111-0.17973 1.5577 1.5577 0.17974 7.6088 0.95859 1.5577 0.17974 0.17973-1.5577 0.77885-6.4105-1.7374 1.378 8.7471 1.0784-1.378-1.7374-0.83876 6.7101-0.17974 1.5577 1.5577 0.17974 7.6088 0.95859 1.5577 0.17974 0.17973-1.5577 0.83877-7.0097-1.7374 1.378 8.4475 1.0185-1.378-1.7374-0.89868 7.0097-0.17973 1.5577 1.5577 0.17974 8.4475 1.0784 1.5577 0.17974 0.17973-1.5577 0.89868-7.3092-1.7374 1.378 11.383 1.378-1.378-1.7374-2.1568 17.554 1.9172-1.3181z" data-name="Path 7624"/>
  <path d="m389.01 116.83s18.333-55.598 27.2-82.918a192.92 192.92 0 0 1 40.261 13.84c-16.955 74.89-19.351 83.876-19.351 83.876-19.471-5.8114-48.109-14.798-48.109-14.798z" fill="#ffd500" data-name="Path 7625"/>
  <path d="m390.86 117.49 27.2-82.918-2.2766 1.3181a198.74 198.74 0 0 1 39.781 13.66l-1.0784-2.2167c-16.715 73.811-19.292 83.697-19.351 83.816l2.4564-1.378c-19.232-5.6916-47.75-14.678-48.049-14.798l1.2581 2.4564zm-2.4564 1.2582s28.877 9.0467 48.109 14.798l1.9172 0.59911 0.5392-1.9771c0.11982-0.35947 2.6361-9.8854 19.351-83.936l0.35947-1.4978-1.378-0.65903a194.32 194.32 0 0 0-40.68-14.019l-1.7374-0.35947-0.5392 1.6775-27.2 82.918-0.59912 1.8573 1.9172 0.59912z" data-name="Path 7626"/>
  <path d="m413.51 72.673c6.111-15.277 14.319-13.6 9.7057 2.696z" data-name="Path 7627"/>
  <path d="m431.36 77.765c6.3506-15.158 14.618-13.3 9.6458 2.8758z" data-name="Path 7628"/>
  <path d="m465.03 52.842s1.6775-5.6317 5.0925-16.895c0 0-3.9542-1.1982-10.964-3.2951 0 0-0.47929 1.6775-2.0969 7.0696 0 0-1.1383-0.35947-8.148-2.4564 0 0 0.83876-2.8158 2.037-6.77 0 0-2.5163-0.77885-8.148-2.4564 0 0-0.65903 2.2766-2.037 6.77 0 0-2.2766-0.65903-7.3092-2.2167 0 0 0.59911-1.9771 1.9771-6.4705 0 0-2.5163-0.77885-8.4475-2.5163 0 0-0.95859 3.1154-1.8573 6.2308 0 0-2.8158-0.83876-7.3092-2.2167 0 0 0.41938-1.4379 1.7974-5.9313l-10.125-3.0555c-2.8158 9.2863-4.8528 16.056-4.8528 16.056a332.79 332.79 0 0 1 60.631 18.213z" data-name="Path 7629"/>
  <path d="m465.57 51.165s1.6775-5.6317 5.0925-16.895c0 0-3.9542-1.1982-11.024-3.2951 0 0-0.4793 1.6775-2.0969 7.0696 0 0-1.1383-0.35947-8.148-2.4564 0 0 0.83877-2.8158 2.037-6.77 0 0-2.5163-0.77885-8.2079-2.4564 0 0-0.65903 2.2766-2.037 6.77 0 0-2.2766-0.65903-7.3092-2.2167 0 0 0.59912-1.9771 1.9771-6.4705 0 0-2.5163-0.77885-8.4475-2.5163 0 0-0.95859 3.1154-1.8573 6.2308 0 0-2.8158-0.83876-7.3092-2.2167 0 0 0.41939-1.4379 1.7974-5.9313l-10.125-3.0555c-2.8158 9.2863-4.7929 16.056-4.7929 16.056a334.59 334.59 0 0 1 60.631 18.213z" fill="#ffd500" data-name="Path 7630"/>
  <path d="m467.07 51.584 5.0925-16.895 0.47929-1.4978-1.4978-0.47929-10.964-3.2951-1.4978-0.41938-0.47929 1.4978-2.0969 7.0696 1.9771-1.0185-8.2079-2.4564 1.0784 1.9771 2.037-6.77 0.4793-1.4978-1.4978-0.47929-8.2079-2.4564-1.4978-0.47929-0.47929 1.4978-2.037 6.77 1.9771-1.0784-7.3092-2.2167 1.0784 1.9771 1.9771-6.4705 0.47929-1.4978-1.4978-0.47929-8.4475-2.5163-1.4978-0.47929-0.47929 1.4978-1.8573 6.2308 1.9771-1.0784-7.3092-2.2167 1.0185 1.9771 1.7974-5.9313 0.47929-1.4978-1.4978-0.47929-10.125-3.0555-1.4978-0.41938-0.4793 1.4978-4.8528 16.056-0.53921 1.6775 1.7374 0.29956a332.55 332.55 0 0 1 60.271 18.093l1.6176 0.65903 0.47929-1.6775zm-0.89867-1.9172a340.98 340.98 0 0 0-60.93-18.333l1.2582 1.9771 4.7929-16.056-1.9771 1.0185 10.125 3.0555-1.0784-1.9771-1.7974 5.9313-0.4793 1.4978 1.4978 0.47929 7.3092 2.2167 1.4978 0.47929 0.47929-1.4978 1.8573-6.2308-1.9771 1.0185 8.4476 2.5163-1.0784-1.9771-1.9771 6.4705-0.47929 1.4978 1.4978 0.47929 7.3092 2.2167 1.4978 0.47929 0.4793-1.4978 2.037-6.77-1.9771 1.0784 8.148 2.4564-1.0185-1.9771-2.037 6.77-0.47929 1.4978 1.4978 0.47929 8.148 2.4564-0.23965-0.11982 1.6775 0.83876 0.5392-1.7974 2.0969-7.0696-1.9771 1.0185 11.024 3.2951-1.0784-1.9771-5.0925 16.895 2.0969-1.0185z" data-name="Path 7631"/>
  <path d="m40.44 553.04a173.98 173.98 0 0 1-36.965 21.988l0.41938-0.11982 1.7374 5.2123a174.6 174.6 0 0 0 38.343-22.766l-3.4749-4.2537z" data-name="Path 7632"/>
  <path d="m284.22 230.18c-6.4705 14.738-2.3366 23.545-2.3366 23.545a58.713 58.713 0 0 1-1.1982 24.144c12.941-12.342 9.4061-40.021 9.4061-40.021-2.3366 0.59912-5.8714-7.6687-5.8714-7.6687z" data-name="Path 7633"/>
  <path d="m401.95 117.79c17.494-39.362 31.334-35.647 21.808 7.7286z" data-name="Path 7634"/>
  <path d="m401.95 117.79c17.494-39.362 31.334-35.647 21.808 7.7286z" data-name="Path 7635"/>
  <path d="m505 604.63s-44.754-16.476-87.711-2.3366c0 0-20.01 6.4705-31.813 4.1339 0 0-91.245-2.3366-109.52-110.72 0 0-9.4061-65.963-17.674-93.043a189.28 189.28 0 0 1-5.8713-81.839 191.12 191.12 0 0 0 8.2678-67.101 322.23 322.23 0 0 1-14.738 60.631c-14.738 47.091 1.1982 79.503 1.1982 79.503a285.23 285.23 0 0 1 13.48 53.801 321.13 321.13 0 0 0 9.526 65.124c21.808 67.7 44.155 77.705 44.155 77.705 44.754 43.556 101.85 24.144 101.85 24.144 53.561-14.139 87.112 4.733 87.112 4.733l1.7974-14.738z" fill="#fff" data-name="Path 7636"/>
  <path d="m505.65 602.77c-0.4793-0.17973-45.892-16.536-89.029-2.3965-0.17974 0.0599-19.651 6.2907-30.795 4.074h-0.35947c-0.89867 0-89.868-3.6546-107.6-109.04-0.0599-0.59911-9.526-66.382-17.734-93.282a189.57 189.57 0 0 1-5.8114-80.941l-0.11982 0.35947c0.41938-1.0185 9.526-25.582 8.3876-67.88l-3.8943-0.23964a323.76 323.76 0 0 1-14.618 60.211c-14.798 47.45 0.59911 79.683 1.2581 81.06a281.32 281.32 0 0 1 13.3 53.261v-0.17973a327.66 327.66 0 0 0 9.526 65.543c21.808 67.82 44.275 78.544 45.233 78.964l-0.53921-0.35947c45.113 43.915 103.29 24.803 103.83 24.564 51.943-13.72 85.194 4.3736 85.554 4.5533l2.5762 1.4379 0.35947-2.8758 1.7374-14.738 0.17974-1.5577zm-1.4978 14.858c-1.378-0.77886-34.869-19.052-88.609-4.9128-0.65903 0.23965-56.676 18.513-99.993-23.665l-0.23965-0.23965-0.29956-0.11982s-21.988-10.904-43.076-76.507a326.3 326.3 0 0 1-9.4061-64.585v-0.23965a285.87 285.87 0 0 0-13.54-54.22c-0.23964-0.4793-15.457-32.472-1.1383-78.185a337.46 337.46 0 0 0 14.798-60.93l-3.8943-0.23964a192.7 192.7 0 0 1-8.0881 66.382v0.17974l-0.11982 0.17973a190.96 190.96 0 0 0 5.9912 82.858c8.0881 26.481 17.434 91.964 17.554 92.623 9.5859 56.796 39.302 84.296 62.548 97.416a115.58 115.58 0 0 0 48.828 14.978h-0.29956c12.162 2.3965 31.933-3.9542 32.772-4.1938 41.878-13.78 86.033 2.1568 86.453 2.3366l-1.2581-2.0969-1.7374 14.738 2.8758-1.4978z" data-name="Path 7637"/>
  <path d="m222.39 526.92a126.95 126.95 0 0 0-1.7374-30.016s-2.9357-2.3366 0-38.883c0 0 8.2678-25.882 5.2722-76.507 0 0-5.2722-42.957 11.203-59.492a96.14 96.14 0 0 0-3.415 35.348 71.247 71.247 0 0 1 1.6176 17.674 369.12 369.12 0 0 1-0.59911 54.16 152.98 152.98 0 0 0-4.733 40.62c0.59912 49.487-5.8713 54.16-5.8713 54.16z" fill="#fff" data-name="Path 7638"/>
  <path d="m224.31 527.16a131.81 131.81 0 0 0-1.7374-30.555l-0.11983-0.77886-0.59911-0.47929 0.35947 0.41938c-0.11983-0.17973-2.2766-4.9128 0.35947-37.565v0.41938c0.23964-1.0784 8.2079-26.84 5.2722-77.226-0.0599-0.53921-4.9727-42.358 10.604-57.994l-3.2951-1.7974-0.41938 1.8573a95.325 95.325 0 0 0-3.0555 33.97v0.23965a74.848 74.848 0 0 1 1.6176 17.075v0.35947a359.43 359.43 0 0 1-0.59912 53.861v-0.17973a154.75 154.75 0 0 0-4.733 41.219c0.5392 45.832-5.0326 52.303-5.2722 52.543l0.17973-0.11983-0.29955 0.23965-0.17974 0.35947-1.7374 2.9357 3.6546 1.3181zm0.95859-1.6176c1.1982-0.89867 7.2493-7.7286 6.7101-55.778a152.34 152.34 0 0 1 4.6731-40.201v-0.23965a377.91 377.91 0 0 0 0.59912-54.46v0.35947a74.039 74.039 0 0 0-1.6775-18.213v0.23965a90.467 90.467 0 0 1 2.9956-32.951l0.41938-1.8573 1.4379-6.5903-4.7929 4.7929c-16.955 16.955-11.982 59.313-11.743 61.11 2.8758 49.487-5.1524 75.429-5.2123 75.728v0.17973l-0.0599 0.23965c-1.378 17.135-2.3965 38.044 0.71894 40.56l-0.71894-1.2582a130.5 130.5 0 0 1 1.7974 29.477l3.6546 1.2582 1.7374-2.9357-0.53921 0.59911z" data-name="Path 7639"/>
  <path d="m243.54 419.74a295.36 295.36 0 0 0-1.1982 60.031c4.733 39.422 22.347 56.497 22.347 56.497-14.139-28.278-14.738-77.705-14.738-77.705a181.72 181.72 0 0 0-1.1982-21.209 41.075 41.075 0 0 0-5.2722-17.674z" fill="#fff" data-name="Path 7640"/>
  <path d="m241.62 419.44a300.91 300.91 0 0 0-1.1982 60.511c4.733 39.721 22.227 57.036 22.946 57.755l3.1154-2.2766c-13.78-27.559-14.499-76.387-14.499-76.867a177.06 177.06 0 0 0-1.2582-21.628v0.17974a42.196 42.196 0 0 0-5.6317-18.573l-2.8158-3.7744zm0.35947 1.4379a40.416 40.416 0 0 1 4.9128 16.775v0.23965c0 0.0599 0.53921 2.9956 1.1383 20.789 0 1.9771 0.77885 50.206 14.918 78.544l3.1154-2.2766s-17.255-17.135-21.808-55.358a296.38 296.38 0 0 1 1.1982-59.552l-3.5348 0.89868z" data-name="Path 7641"/>
  <path d="m215.32 540.46c-12.042 6.77-23.246 32.412-23.246 32.412-5.0326 15.337-9.4061 15.337-9.4061 15.337-9.4061 0.59911-9.4061 2.9357-9.4061 2.9357-0.29955 3.2352 9.4061 2.6361 9.4061 2.6361 2.037 16.476 5.0326 10.305 5.0326 10.305 0.89867-7.9682 4.4335-10.005 4.4335-10.005 25.043-22.347 27.38-37.085 27.38-37.085 4.733-23.246-2.037-17.974-2.037-17.974l-2.037 1.4379z" fill="#fff" data-name="Path 7642"/>
  <path d="m214.36 538.73c-12.522 7.0097-23.605 32.232-24.084 33.311-4.3136 13.061-7.8484 14.139-7.8484 14.139h0.23965c-9.4061 0.59912-11.383 2.9956-11.383 4.9128a3.2772 3.2772 0 0 0 0.95859 2.5163c2.2766 2.3965 8.6273 2.2167 10.544 2.0969l-2.037-1.7374c1.3181 10.425 2.9956 12.761 5.2123 13.121a3.4449 3.4449 0 0 0 3.5348-2.2167l0.11982-0.29956v-0.29956a12.06 12.06 0 0 1 3.5348-8.5674h0.11982l0.17974-0.17973c25.223-22.587 27.919-37.625 27.979-38.224 3.1753-15.577 1.2582-18.992-0.71894-20.25a4.038 4.038 0 0 0-4.4934 0.41938c0.0599 0-1.9771 1.4379-1.9771 1.4379l0.17974-0.11982zm4.2537 1.7974a1.5397 1.5397 0 0 1 0.29955-0.11982c-0.0599 0-0.23964 0-0.29955-0.11983 0.0599 0.0599 1.8573 2.037-1.0185 16.236 0 0.23965-2.7559 14.559-26.781 36.007l0.29956-0.23965c-0.47929 0.23965-4.4335 2.8158-5.392 11.503l0.17974-0.59912-0.11983 0.17974a1.0904 1.0904 0 0 1 1.1982 0c-0.11983-0.11982-1.3181-1.4978-2.3366-9.8854l-0.23965-1.7974-1.8573 0.11983a15.889 15.889 0 0 1-7.489-0.89868 1.1982 1.1982 0 0 1 0.11983 0.35947 1.0005 1.0005 0 0 1-0.17974 0.53921s1.1982-1.3181 7.7885-1.6775c1.2581 0 6.111-1.1982 11.144-16.655 0-0.0599 11.024-24.923 22.347-31.274h0.11982l0.0599-0.11983s2.037-1.4978 2.1568-1.5577z" data-name="Path 7643"/>
  <path d="m234.43 539.86c-10.904 26.481-1.1982 39.721-1.1982 39.721 8.0282 15.457 3.2352 22.047 3.2352 22.047-5.2722 10.305 0.29956 7.3691 0.29956 7.3691a48.876 48.876 0 0 0 7.0696-6.77c17.075 8.2678 10.305-0.29956 10.305-0.29956-9.1066-10.005-6.77-15.038-6.77-15.038 4.733-40.021-6.77-48.289-6.77-48.289-4.733-6.1709-6.1709 1.1982-6.1709 1.1982z" fill="#fff" data-name="Path 7644"/>
  <path d="m232.64 539.09c-11.203 27.2-1.378 41.099-0.95859 41.639l-0.17973-0.23965c7.2493 13.9 3.415 20.01 3.355 20.07l-0.0599 0.23965c-2.7559 5.3321-3.1753 8.148-1.5577 9.7656a3.7864 3.7864 0 0 0 4.4934 0.23965l0.17973-0.11983 0.17974-0.11982a42.16 42.16 0 0 0 7.429-7.1894l-2.4564 0.65903c9.5859 4.6132 12.342 4.4335 13.84 2.6361 1.6176-2.037-0.23964-4.7929-1.1383-5.9312-7.9682-8.7471-6.5304-13.001-6.5304-13.061l0.11982-0.29956v-0.17973a98.051 98.051 0 0 0-1.7374-39.961c-2.0969-6.4705-5.2722-10.485-7.0097-10.485l1.5577 0.77886c-1.9172-2.5163-3.8943-3.5947-5.7515-3.1753-2.8758 0.65903-3.7744 4.3736-3.8943 5.1524l0.11983-0.35947zm3.7145 1.1383a4.5533 4.5533 0 0 1 0.95859-2.0969h-0.11983s0.59912 0.11983 1.8573 1.6775l0.17973 0.23965 0.23965 0.17973s10.425 8.5674 5.9912 46.432l0.17974-0.59911c-0.29956 0.65902-2.6361 6.4705 7.0696 17.135a5.0266 5.0266 0 0 1 0.83876 1.5577 1.2522 1.2522 0 0 1 0.65903-0.95859c-0.17974 0-1.9172 0.29956-9.466-3.355l-1.5577-0.71894-0.95859 1.4379a47.798 47.798 0 0 1-6.7101 6.3506l0.35947-0.23964a2.7859 2.7859 0 0 1-0.53921 0.17973 1.0604 1.0604 0 0 1 0.83877 0.65903s-0.17974-1.1982 2.037-5.5718l-0.17973 0.23964c0.23964-0.29956 5.392-7.7885-3.1154-24.144v-0.11982l-0.17973-0.11983c-0.0599-0.11982-8.8669-12.821 1.4379-37.864v-0.17974l0.11982-0.17973z" data-name="Path 7645"/>
  <path d="m258.28 548.37a49.181 49.181 0 0 0 16.775 35.048 62.104 62.104 0 0 1 15.577 13.84c5.8713 21.508 6.4705 12.342 6.4705 12.342a24.456 24.456 0 0 0 2.037-7.3691c15.038-2.037 10.305-5.5718 10.305-5.5718a20.28 20.28 0 0 1-17.374-14.139c-17.974-42.657-32.113-39.422-32.113-39.422-2.6361-1.4379-1.7374 5.3321-1.7374 5.3321z" fill="#fff" data-name="Path 7646"/>
  <path d="m256.36 548.55a53.525 53.525 0 0 0 17.434 36.306 65.304 65.304 0 0 1 15.218 13.36l-0.17974-0.47929c4.074 14.918 5.7515 15.937 7.7885 15.697 1.4978-0.11982 2.3965-1.4978 2.5762-3.7744l-0.11982 0.59912a25.762 25.762 0 0 0 2.2167-8.0881l-1.6775 1.9172c8.148-1.1383 11.922-2.7559 12.581-5.452a3.4988 3.4988 0 0 0-1.378-3.6546l-0.41938-0.29955h-0.47929a18.752 18.752 0 0 1-15.757-12.701v-0.17973l-0.11982-0.11983c-18.093-42.957-32.712-40.98-34.329-40.62l1.378 0.17974a2.8578 2.8578 0 0 0-3.1753 0c-1.8573 1.2581-1.8573 4.6132-1.4978 7.1894zm3.8943-0.41938a10.556 10.556 0 0 1 0.0599-3.7744 1.0544 1.0544 0 0 1-1.1982 0.41938l0.59912 0.29956 0.77885-0.0599c0.11983 0 13.121-1.6775 29.896 38.284l-0.11982-0.29956a22.077 22.077 0 0 0 18.992 15.637l-0.89867-0.35947a0.83277 0.83277 0 0 1 0-0.53921c0 0.0599-1.1383 1.4978-9.4061 2.6361l-1.6775 0.23964v1.7374a23.737 23.737 0 0 1-1.9172 6.6502l-0.11982 0.29955v0.29956a6.6802 6.6802 0 0 1-0.17974 0.77885 1.3959 1.3959 0 0 1 0.95859-0.65902 1.324 1.324 0 0 1 1.1383 0.23964 42.945 42.945 0 0 1-4.6132-13.121v-0.23965l-0.17973-0.23965a62.422 62.422 0 0 0-16.176-14.439 47.816 47.816 0 0 1-15.996-33.73z" data-name="Path 7647"/>
  <path d="m322.03 706.9a140.89 140.89 0 0 0-144.99 1.3181l24.144 1.7374c21.808-14.139 75.369-11.803 98.914 0.59911z" fill="#fff" data-name="Path 7648"/>
  <path d="m323.1 705.28c-41.878-26.661-105.14-26.062-147.14 1.318l-4.8528 3.1753 5.8114 0.41938 24.144 1.7374h0.65903l0.5392-0.29956c21.209-13.78 74.29-11.203 96.937 0.65903l0.59912 0.29956 0.65903-0.11982 26.96-4.4934-4.3136-2.7559zm-22.048 3.5947c-24.025-12.581-78.305-15.158-100.89-0.4793l1.1982-0.29956-24.144-1.7974 0.89868 3.5947c40.74-26.661 102.21-27.2 142.89-1.318l0.71894-3.5947-21.928 3.6546 1.2581 0.17973z" data-name="Path 7649"/>
  <path d="m4.5533 606.37c43.556-21.209 105.98-5.8713 105.98-5.8713a239.26 239.26 0 0 0 54.759 5.3321 101.38 101.38 0 0 1-61.23 6.4705c-77.705-7.0696-97.177 8.807-97.177 8.807z" fill="#fff" data-name="Path 7650"/>
  <path d="m5.3921 608.16c42.417-20.67 104.01-5.8713 104.67-5.7515a237.93 237.93 0 0 0 55.298 5.3321l-0.89867-3.7744a100.97 100.97 0 0 1-59.972 6.4105h-0.17974l-0.17973-0.0599c-77.646-7.0696-97.776 8.6273-98.555 9.2863l3.1753 1.1982-2.3366-14.738-1.0784 2.0969zm2.7559 14.499s20.25-15.277 95.739-8.3876h-0.29956a103.52 103.52 0 0 0 62.548-6.6502l-0.89868-3.7744a239.89 239.89 0 0 1-54.28-5.2722c-2.5163-0.59911-63.566-15.218-107.24 6.0511l-1.3181 0.65903 0.23965 1.4379 2.3366 14.738 0.53921 3.3551z" data-name="Path 7651"/>
  <path d="m11.563 636.44c39.422-17.075 93.642-6.4705 93.642-6.4705a172.32 172.32 0 0 0 100.11-7.0696c42.417-16.476 98.914-0.59911 98.914-0.59911 58.893 24.144 100.11 7.0696 100.11 7.0696 43.556-13.54 95.379 6.4705 95.379 6.4705l-6.4705 13.54s-43.556-18.812-87.112-5.2722c0 0-41.219 17.075-100.11-7.0696 0 0-55.958-15.277-98.315 0.59911a174.76 174.76 0 0 1-100.65 7.0696s-50.026-11.803-89.508 5.3321l-5.8713-13.54z" fill="#fff" data-name="Path 7652"/>
  <path d="m12.342 638.24c38.403-16.655 91.904-6.4705 92.444-6.3506a175.79 175.79 0 0 0 101.25-7.1894c41.219-15.996 97.057-0.65903 97.596-0.47929h-0.23964c58.953 24.084 99.873 7.6687 101.61 7.0097 42.238-13.121 93.402 6.2907 93.941 6.4705l-1.0784-2.696-6.4705 13.54 2.5762-0.95859c-0.41938-0.17974-44.754-18.992-88.49-5.392-0.59912 0.23965-41.399 16.536-98.734-7.0097h-0.11982l-0.11983-0.0599c-2.3366-0.65903-57.036-15.277-99.513 0.65903a174 174 0 0 1-99.513 7.0097c-2.0969-0.4793-51.165-11.743-90.706 5.392l2.5762 1.0185-5.8713-13.54-1.0185 2.5762zm5.8713 13.54c38.403-16.655 87.771-5.3321 88.25-5.2123a178.05 178.05 0 0 0 101.91-7.1894c41.219-15.457 96.458-0.65903 96.997-0.47929h-0.23964c59.672 24.384 101.73 6.9498 102.03 6.7101l-0.59912 0.29956c42.358-13.181 85.374 5.0326 85.794 5.2123l1.7374 0.77885 0.83876-1.6775 6.4705-13.54 0.89867-1.9172-1.9771-0.77885c-2.1568-0.83876-52.962-20.13-96.697-6.5304-0.59912 0.23965-41.399 16.536-98.734-7.0097h-0.11982l-0.11983-0.0599c-2.3366-0.65903-57.635-15.877-100.17 0.65903a171.11 171.11 0 0 1-98.914 6.9498c-2.3366-0.47929-55.298-10.544-94.84 6.5903l-1.7974 0.77885 0.77885 1.7974 5.8713 13.54 0.77885 1.7974 1.7974-0.77886z" data-name="Path 7653"/>
  <path d="m479.65 667.06s-38.284-15.337-75.369-1.7974c0 0-26.481 12.941-90.646-5.8713 0 0-63.566-17.674-103.65-4.1339 0 0-61.23 22.946-100.65 11.203 0 0-47.69-11.203-79.503 1.7374l15.337 11.803c30.016-8.2678 68.299 2.9357 68.299 2.9357 39.422 11.803 100.65-11.203 100.65-11.203 33.551-13.54 103.05 5.8714 103.05 5.8714 64.165 15.337 91.245 4.1339 91.245 4.1339 35.947-10.604 57.695-1.7374 57.695-1.7374z" fill="#fff" data-name="Path 7654"/>
  <path d="m480.37 665.2c-1.6176-0.65903-39.422-15.457-76.747-1.7974h-0.11983l-0.11982 0.0599c-0.23965 0.11982-26.781 12.342-89.268-5.9912-2.6361-0.71894-64.645-17.674-104.79-4.074-0.65903 0.23965-61.11 22.647-99.513 11.144-2.0969-0.47929-48.768-11.203-80.761 1.8573l-3.1753 1.3181 2.696 2.0969 15.337 11.803 0.77885 0.59911 0.95859-0.23964c29.117-7.9683 66.861 2.8158 67.221 2.9357 39.602 11.803 99.393-10.305 101.91-11.203 32.592-13.181 101.13 5.7515 101.79 5.9312 64.105 15.277 91.425 4.4934 92.564 4.074h-0.17973c34.749-10.185 56.197-1.8573 56.377-1.7374l1.1982 0.47929 0.89867-0.89867 13.54-12.941 2.2167-2.0969-2.8158-1.1383zm-13.54 12.941c-0.89868-0.35947-22.826-8.9868-59.013 1.6775h-0.11982l-0.11982 0.0599c-0.23965 0.11982-27.44 10.724-90.047-4.1938-2.8158-0.77885-70.456-19.411-104.25-5.8114-0.53921 0.17973-61.05 22.587-99.393 11.144-1.6176-0.47929-39.182-11.263-69.378-2.9357l1.7374 0.35947-15.337-11.803-0.47929 3.355c30.855-12.581 77.825-1.7974 78.305-1.6775 39.482 11.803 99.274-10.305 101.79-11.263 38.943-13.181 101.79 4.0141 102.39 4.1938 64.165 18.812 90.946 6.2907 92.024 5.7515h-0.17973c35.947-13.061 73.572 1.6775 73.991 1.7974l-0.59912-3.2352-13.54 12.941 2.0969-0.41938z" data-name="Path 7655"/>
  <path d="m3.9542 588.15c57.096-18.273 121.86-9.4061 121.86-9.4061 53.681 5.6916 74.77-31.813 81.48-84.715 2.0969-18.273 3.2951-43.616 6.77-67.041a284.15 284.15 0 0 0 2.3965-49.008c0.59911-59.432 11.803-66.502 11.803-66.502 28.278-58.893 20.61-87.112 20.61-87.112-2.9357-24.744-20.61 9.4061-20.61 9.4061-35.887 26.481-33.551 60.031-33.551 60.031-18.273 9.4061-12.941 44.754-12.941 44.754-20.61 2.3366-17.674 94.181-17.674 94.181-13.54 19.411-12.342 27.08-12.342 27.08-1.7374 15.337-5.8714 19.411-5.8714 19.411a58.713 58.713 0 0 1-18.213 27.08 35.228 35.228 0 0 0-11.203 20.61c-2.0969 5.1524-11.803 11.203-22.347 12.402-28.278 0.59911-59.492 19.411-59.492 19.411a71.972 71.972 0 0 1-30.016 4.733l-0.59912 24.744z" fill="#fff" data-name="Path 7656"/>
  <path d="m4.7929 590.73c55.838-17.854 120-9.4061 120.66-9.2863 48.828 5.2123 76.507-23.306 84.595-87.112 0.83876-7.0696 1.4978-15.038 2.2167-23.545 1.1383-13.6 2.3965-28.997 4.5533-43.376a280.9 280.9 0 0 0 2.3965-49.547c0.53921-55.418 10.544-64.105 10.604-64.165l-1.6176 0.4793h1.7374l0.77885-1.5577c28.398-59.133 21.089-87.83 20.789-89.029v0.35947c-0.23964-2.5762-1.1383-10.365-6.4705-11.323-7.3691-1.3181-15.877 13.42-19.232 19.831l0.83876-0.95858c-36.726 27.08-34.749 61.05-34.689 62.488l1.4978-2.6361c-19.771 10.185-14.618 46.072-14.439 47.57l2.3965-3.1154c-21.988 2.5163-20.61 81.24-20.07 96.997l0.4793-1.6775c-13.78 19.771-12.941 28.158-12.821 29.057v-0.71894a36.456 36.456 0 0 1-5.1524 17.854l-0.35947 0.35947-0.23964 0.5392a56.185 56.185 0 0 1-17.314 25.882l-0.23965 0.23965a37.493 37.493 0 0 0-11.982 22.407l0.17973-0.89868a27.206 27.206 0 0 1-20.13 10.664c-28.398 0.59911-59.313 18.992-60.571 19.831a68.946 68.946 0 0 1-28.398 4.3136l-2.8758-0.17974v2.8758l-0.65903 24.744-0.11982 3.8344zm-0.41938-24.624a74.686 74.686 0 0 0 31.394-4.9727c0.5392-0.29956 31.154-18.573 58.354-19.172 11.144-1.2582 22.167-7.5489 24.863-14.079l0.17974-0.41938v-0.4793a33.491 33.491 0 0 1 10.425-18.812l-0.23965 0.23964a62.051 62.051 0 0 0 19.172-28.398l-0.65902 1.0784c0.47929-0.47929 4.8528-5.2722 6.6502-21.089v-0.71894s-0.47929-7.3092 11.922-25.103l0.53921-0.71894v-0.89868c-1.1982-37.085 2.696-89.987 15.218-91.365l2.8158-0.29956-0.41938-2.8158c0-0.35947-4.7929-33.491 11.503-41.878l1.6176-0.83877-0.11982-1.7974c0-0.29956-1.7374-32.472 32.472-57.635l0.5392-0.35947 0.29956-0.53921c5.1524-9.9453 11.383-17.255 13.36-16.895 0 0 1.378 0.71894 2.0969 6.5304v0.17974l0.0599 0.17974c0.0599 0.23964 6.8898 28.278-20.43 85.254l1.0185-1.1383c-1.2581 0.77885-12.462 9.5859-13.061 68.838a288.86 288.86 0 0 1-2.3366 48.648c-2.1568 14.618-3.4749 30.076-4.6132 43.795-0.71894 8.4475-1.378 16.416-2.1568 23.366-7.7286 61.05-32.712 87.171-78.484 82.319-0.59912-0.0599-65.963-8.6872-123 9.526l3.5947 2.696 0.59912-24.744-2.9357 2.696z" data-name="Path 7657"/>
  <path d="m43.376 578.69c20.61-21.209 37.684-22.946 37.684-22.946a69.384 69.384 0 0 0 36.486-27.08c-7.0696 34.15-31.813 37.684-31.813 37.684a264.99 264.99 0 0 0-35.348 11.203l-7.0696 1.1982z" data-name="Path 7658"/>
  <path d="m216.46 392.66c-23.545 21.808-38.883 90.646-38.883 90.646a194.01 194.01 0 0 1-24.144 45.952 120.25 120.25 0 0 0 26.002-36.846 663.06 663.06 0 0 1 35.827-83.217l1.1982-16.476z" data-name="Path 7659"/>
  <path d="m153.49 456.23c10.604-15.877 19.411-28.877 19.411-28.877a70.204 70.204 0 0 0 16.476-45.892 70.696 70.696 0 0 1 7.0696-34.15 32.209 32.209 0 0 0 3.5348-18.273 155.17 155.17 0 0 1-18.812 26.481c1.7374-4.1339 0-11.203 2.5163-15.877 0-2.4564-1.9771-1.1982-1.9771-1.1982-5.8713 20.61-4.1339 18.273-4.1339 18.273a245.95 245.95 0 0 0-4.1339 41.818 160.52 160.52 0 0 1-20.01 57.695z" data-name="Path 7660"/>
  <path d="m228.26 233.72c4.733 34.15-20.61 69.498-20.61 69.498 4.1339-20.01 10.604-41.818 10.604-41.818a53.501 53.501 0 0 0 1.7374-19.411l8.2678-8.2079z" data-name="Path 7661"/>
  <path d="m268.88 221.31s-1.1982-15.877 13.54 0a38.529 38.529 0 0 1 2.9357 12.941s17.075 3.5348 15.337 32.951c0 0 5.2722-1.7374 7.8484 17.614 1.6775 6.8898-1.9172 14.738 3.355 28.877 0 0 19.411 21.808 16.476 62.428 0 0 10.604 1.7374 12.342 24.144a201.3 201.3 0 0 0 6.4705 35.348s6.4705 41.818 48.648 80.461c22.587 16.715 30.914 6.6502 52.003 15.517a214.65 214.65 0 0 0 57.695 12.941v39.422s-28.877-10.005-94.181 1.1982c0 0-28.877 10.604-75.369-15.877 0 0-25.343-10.604-43.436-68.898-3.1154-8.2079-4.7929-24.684-15.337-56.497-5.3321-17.674-4.7929-32.352-6.5304-51.224 0 0 4.1339-16.476-1.1982-51.224 0 0-8.2678-11.203-2.9357-43.556 0 0 8.807-21.209 2.3366-76.507" fill="#fff" data-name="Path 7662"/>
  <path d="m271.64 221.13a7.2853 7.2853 0 0 1 0.71894-4.1339s2.1568-0.23965 8.0881 6.1709l-0.35947-0.47929a40.021 40.021 0 0 1 2.5762 11.863l0.23965 1.9771 1.9172 0.41938c0.59912 0.11982 14.738 3.6546 13.121 30.136l-0.23964 4.074 3.8344-1.2582a1.6715 1.6715 0 0 1-0.71894 0.0599s3.1154 1.4978 4.9128 15.277v0.23965a29.261 29.261 0 0 1 0.35947 7.429 51.524 51.524 0 0 0 3.1154 21.808l0.17973 0.4793 0.35947 0.35947s18.633 21.508 15.817 60.391l-0.17973 2.5163 2.4564 0.41938s8.5074 2.0969 10.065 21.628a193.15 193.15 0 0 0 6.5903 35.827v-0.29956c0.17974 1.7374 7.0097 43.196 49.427 82.079l0.11982 0.11983h0.11982a51.764 51.764 0 0 0 32.053 11.623 57.881 57.881 0 0 1 20.55 4.3136 214.05 214.05 0 0 0 58.474 13.181l-2.4564-2.7559v39.422l3.6546-2.5762c-1.1982-0.41938-30.255-10.125-95.559 1.0784h-0.23965l-0.23964 0.11982c-0.23965 0.11982-28.398 9.7057-73.032-15.697h-0.11982l-0.17974-0.11982c-0.23964-0.11982-24.444-11.144-41.878-67.221a104.8 104.8 0 0 1-3.4749-13.24 438.65 438.65 0 0 0-11.863-43.256 150.59 150.59 0 0 1-5.3321-36.187c-0.29956-4.6132-0.59911-9.3462-1.0784-14.379v0.89867c0.11983-0.71894 4.1339-17.434-1.1982-52.303l-0.11982-0.65903-0.41939-0.53921s-7.429-11.024-2.4564-41.519l-0.17974 0.59911c0.35947-0.89867 9.0467-22.467 2.5163-77.945l-5.452 0.65903c6.2907 53.681-2.0969 74.95-2.1568 75.189l-0.11982 0.29955v0.29956c-5.452 33.131 3.0555 45.173 3.415 45.653l-0.47929-1.1982c5.1524 33.61 1.2581 49.966 1.1982 50.146l-0.11982 0.47929v0.47929c0.47929 4.9727 0.77885 9.7057 1.0784 14.259a155.77 155.77 0 0 0 5.5718 37.505 414.91 414.91 0 0 1 11.743 42.837 111.01 111.01 0 0 0 3.6546 13.84c18.273 58.713 43.855 70.037 44.994 70.456l-0.29955-0.11982c47.091 26.84 76.447 16.536 77.646 16.056l-0.4793 0.11982c38.583-6.5903 69.917-7.0097 93.103-1.1982l3.415 0.83876v-45.413l-2.4564-0.29956a212.8 212.8 0 0 1-56.916-12.761 63.297 63.297 0 0 0-22.347-4.733 46.132 46.132 0 0 1-29.117-10.485l0.23964 0.17973c-40.98-37.565-47.75-78.424-47.81-78.844v-0.17974l-0.0599-0.17973a205.68 205.68 0 0 1-6.4106-34.749c-1.9172-24.264-14.139-26.601-14.678-26.661l2.2766 2.9357c2.9956-41.279-16.356-63.506-17.195-64.465l0.5392 0.83876a45.569 45.569 0 0 1-2.8158-19.651 31.478 31.478 0 0 0-0.47929-8.9268v0.29956c-1.3181-10.664-3.7744-16.955-7.3092-19.172a4.7091 4.7091 0 0 0-4.0141-0.65903l3.5947 2.7559c1.8573-31.454-16.715-35.647-17.494-35.827l2.1568 2.3965a40.47 40.47 0 0 0-3.2951-14.019l-0.11983-0.23965-0.17973-0.17974c-3.8943-4.1938-9.5859-9.526-14.319-7.489-4.3136 1.8573-4.074 8.3277-4.0141 9.5859l5.452-0.41938z" data-name="Path 7663"/>
  <path d="m300.7 267.27a79.479 79.479 0 0 0-9.2863 12.641 60.768 60.768 0 0 1-7.1894 17.374c-12.342 12.941 2.3366 40.62 2.3366 40.62 7.0696 26.481 3.5348 69.498 3.5348 69.498a542.3 542.3 0 0 0 3.5348-57.096c-7.0696-36.486-4.1339-47.69-4.1339-47.69a102.13 102.13 0 0 1 11.203-35.348z" data-name="Path 7664"/>
  <path d="m328.38 376.19a248.7 248.7 0 0 1-10.604 41.818c-15.337 31.813 7.0696 49.487 7.0696 49.487a378.13 378.13 0 0 0 56.497 45.353c22.946 16.476 27.08 29.417 27.08 29.417 8.807 13.54 32.412 18.812 32.412 18.812-26.481-15.337-29.417-34.749-29.417-34.749a155.69 155.69 0 0 1-34.15-28.818c5.2722 6.4705 13.54 18.273 13.54 18.273a430.65 430.65 0 0 1-42.417-32.412c-29.417-30.615-22.946-75.369-22.946-75.369a108.12 108.12 0 0 0 4.1339-27.08z" data-name="Path 7665"/>
  <path d="m288.29 439.75c22.946 18.812 25.882 37.684 25.882 37.684 3.5348 40.021 12.941 50.026 12.941 50.026-13.54-6.4705-17.075-34.15-17.075-34.15-1.7374-20.01-21.808-53.561-21.808-53.561z" data-name="Path 7666"/>
  <path d="m338.38 496.31c4.3136 7.0696 7.0696 4.733 14.019 23.785 7.1894 38.583 38.943 43.915 38.943 43.915-50.625-2.9357-48.289-38.284-48.289-38.284a33.712 33.712 0 0 0-4.733-29.417z" data-name="Path 7667"/>
  <rect x="248.27" y="218.56" width="20.61" height="5.5119" data-name="Rectangle 3126"/>
  <path d="m429.03 161.28c-109.52-40.021-271.4-29.417-345.63-0.59912l-1.7374-0.59911a30.657 30.657 0 0 1-5.8713-25.882c84.176-34.15 246.72-42.417 360.91 1.7374a32.502 32.502 0 0 1-7.6687 25.343z" data-name="Path 7668"/>
  <path d="m75.189 137.74c-10.604 3.8344-12.941-7.0696-5.2722-10.005 106.58-38.284 263.19-35.348 366.84-0.59912 12.342 4.1339 8.2079 15.337-3.5348 10.604-103.65-34.749-246.72-37.684-357.97 0z" fill="#ffd500" data-name="Path 7669"/>
  <path d="m74.53 135.88c-3.4749 1.2582-6.2308 0.77885-6.9498-1.2581a4.1399 4.1399 0 0 1 3.0555-5.0326c50.326-18.093 115.57-27.859 183.81-27.559 66.142 0.29956 130.67 9.8854 181.71 26.96 4.074 1.378 5.8714 3.4749 6.111 4.9727a2.037 2.037 0 0 1-0.77885 2.0969c-1.1383 0.95858-3.7145 1.378-7.5489-0.11983-108.08-36.247-252.47-36.247-359.35 0zm1.3181 3.7145c106.16-35.947 249.47-35.947 356.71 0a11.072 11.072 0 0 0 11.383-0.53921 6.1469 6.1469 0 0 0 2.1568-5.8114 11.773 11.773 0 0 0-8.7471-7.9682c-51.404-17.255-116.35-26.9-182.91-27.2-68.659-0.29956-134.44 9.5859-185.19 27.799a8.0162 8.0162 0 0 0-5.3321 10.125c1.3181 3.4749 5.5119 5.9312 11.922 3.5947z" data-name="Path 7670"/>
  <path d="m83.996 166.55c-10.604 3.8343-12.342-7.0696-4.733-10.005 106.58-38.284 249.95-34.749 353.54 0 12.342 4.1339 7.9682 15.038-3.8344 10.305a568.06 568.06 0 0 0-345.03-0.29956z" fill="#ffd500" data-name="Path 7671"/>
  <path d="m83.337 164.76c-3.3551 1.1982-5.9313 0.83876-6.5903-1.0784a4.4335 4.4335 0 0 1 3.2951-5.2722c101.67-36.486 243.24-36.486 352.22 0 4.0141 1.3181 5.7515 3.355 5.9912 4.7929a2.0909 2.0909 0 0 1-0.71894 1.9771 8.118 8.118 0 0 1-7.7885-0.11982 573.04 573.04 0 0 0-346.41-0.29956zm1.2581 3.7145a569.3 569.3 0 0 1 343.83 0.29956 11.383 11.383 0 0 0 11.563-0.53921 5.7755 5.7755 0 0 0 2.0969-5.6916 11.497 11.497 0 0 0-8.6273-7.7885c-109.76-36.786-252.35-36.786-354.86 0a8.2798 8.2798 0 0 0-5.5718 10.305c1.2581 3.2951 5.3321 5.6317 11.563 3.415z" data-name="Path 7672"/>
  <g fill="#ffd500">
   <path d="m89.868 150.2a7.489 7.489 0 1 0-7.489-7.489 7.489 7.489 0 0 0 7.489 7.489z" data-name="Path 7673"/>
   <circle cx="109.94" cy="137.44" r="7.489" data-name="Ellipse 126"/>
   <circle cx="129.65" cy="132.7" r="7.489" data-name="Ellipse 127"/>
   <circle cx="150.26" cy="128.87" r="7.489" data-name="Ellipse 128"/>
   <path d="m170.27 133.12a7.489 7.489 0 1 0-7.489-7.489 7.489 7.489 0 0 0 7.489 7.489z" data-name="Path 7674"/>
   <path d="m191.18 130.79a7.489 7.489 0 1 0-7.489-7.489 7.489 7.489 0 0 0 7.489 7.489z" data-name="Path 7675"/>
   <path d="m212.63 129.35a7.489 7.489 0 1 0-7.489-7.489 7.489 7.489 0 0 0 7.489 7.489z" data-name="Path 7676"/>
   <path d="m234.73 128.15a7.489 7.489 0 1 0-7.489-7.489 7.489 7.489 0 0 0 7.489 7.489z" data-name="Path 7677"/>
   <path d="m255.34 127.85a7.489 7.489 0 1 0-7.489-7.489 7.489 7.489 0 0 0 7.489 7.489z" data-name="Path 7678"/>
   <path d="m275.65 128.15a7.489 7.489 0 1 0-7.489-7.489 7.489 7.489 0 0 0 7.489 7.489z" data-name="Path 7679"/>
   <path d="m296.56 129.35a7.489 7.489 0 1 0-7.489-7.489 7.489 7.489 0 0 0 7.489 7.489z" data-name="Path 7680"/>
   <path d="m317.77 131.09a7.489 7.489 0 1 0-7.489-7.489 7.489 7.489 0 0 0 7.489 7.489z" data-name="Path 7681"/>
   <path d="m339.52 133.72a7.489 7.489 0 1 0-7.489-7.489 7.489 7.489 0 0 0 7.489 7.489z" data-name="Path 7682"/>
   <path d="m360.43 136.96a7.489 7.489 0 1 0-7.489-7.489 7.489 7.489 0 0 0 7.489 7.489z" data-name="Path 7683"/>
   <path d="m381.04 140.79a7.489 7.489 0 1 0-7.489-7.489 7.489 7.489 0 0 0 7.489 7.489z" data-name="Path 7684"/>
   <path d="m400.75 145.53a7.489 7.489 0 1 0-7.489-7.489 7.489 7.489 0 0 0 7.489 7.489z" data-name="Path 7685"/>
   <path d="m421.96 151.1a7.489 7.489 0 1 0-7.489-7.489 7.489 7.489 0 0 0 7.489 7.489z" data-name="Path 7686"/>
  </g>
  <path d="m257.2 742.61c-0.77885-1.7974-19.651-43.736-98.135-37.684-0.77885 0.0599-78.125 5.392-121.62-34.988-19.651-18.213-29.596-43.136-29.596-74.111v-427.47l-3.9542 3.9542h501.64l-3.9542-3.9542v428.61c0 29.896-9.466 53.92-28.158 71.415-39.662 37.145-108.32 33.071-108.98 33.011-42.417-1.0185-74.41 5.452-95.26 19.172-15.996 10.544-19.651 21.928-19.651 23.605l7.5489-1.5577zm0.17974 2.5163c0.11982-0.35947 11.922-38.164 106.82-35.947 2.7559 0.17974 72.493 4.3736 114.67-35.108 20.31-18.992 30.615-44.994 30.615-77.166v-432.56h-509.49v431.36c0 33.251 10.784 60.151 32.113 79.922 46.072 42.717 124.26 37.265 127.55 37.025 72.493-5.5718 89.628 31.394 90.287 32.951l4.5533 10.305 2.8758-10.904z" data-name="Path 7687"/>
  <g fill="#fff">
   <path d="m90.407 313.82v6.6502a2.6661 2.6661 0 0 1-0.29956 0.77885 1.2941 1.2941 0 0 1-1.0784 0.35947h-27.02c-0.89868 0-1.3181-0.35947-1.3181-1.1383v-6.6502c0-0.65903 0.35947-1.0185 1.1383-1.0185h7.1295c0.47929 0 0.77885-0.17974 0.77885-0.47929v-28.758c0-0.65902-0.29956-0.95858-0.95859-0.77885l-6.6502 1.9771c-1.0185 0.23964-1.4978-0.17974-1.4978-1.3181v-4.4934a2.049 2.049 0 0 1 0.17974-1.0185 2.732 2.732 0 0 1 0.83876-0.59912l11.443-5.6916c0.65903-0.29956 1.1383-0.5392 1.4978-0.65903a4.5233 4.5233 0 0 1 1.378-0.17973h4.733c0.65903 0 1.0185 0.41938 1.0185 1.2581v40.021c0 0.47929 0.17974 0.65903 0.59912 0.65903h6.8299c0.83876 0 1.2581 0.35947 1.2581 1.0185z" data-name="Path 7688"/>
   <path d="m130.91 270.86a2.2347 2.2347 0 0 1 1.4978 0.41938 1.1084 1.1084 0 0 1 0.41938 1.0784l-0.17974 3.7145a5.1404 5.1404 0 0 1-0.59911 1.7974 15.739 15.739 0 0 1-1.0784 2.037c-1.6176 2.5163-3.2352 5.2123-4.6731 8.0282-1.4379 2.8158-2.8158 5.7515-4.074 8.7471-1.2581 2.9956-2.2766 5.8713-3.2352 8.6872-0.95858 2.8158-1.6775 5.452-2.2766 7.9083a46.318 46.318 0 0 0-1.1383 6.4705c0 1.2582-0.53921 1.9172-1.4379 1.9172h-10.844c-1.0784 0-1.4978-0.53921-1.1383-1.6176q1.0784-3.8643 2.5163-7.9083c0.95859-2.696 2.0969-5.6317 3.4749-8.7471 1.378-3.1154 3.0555-6.4705 5.0326-10.005 1.9771-3.5348 4.2537-7.489 6.8898-11.743a1.5637 1.5637 0 0 0 0.29956-0.83876c0-0.17974-0.29956-0.29956-0.83876-0.29956h-23.126c-1.0185 0-1.4379-0.41938-1.378-1.3181l0.77885-7.3092c0-0.65903 0.59912-0.95859 1.6176-0.95859h33.551z" data-name="Path 7689"/>
   <path d="m394.88 271.1a3.8224 3.8224 0 0 1 1.6176-0.23965h8.5674q1.0784 0 1.0784 1.2582v28.698c0 0.47929 0.23964 0.77885 0.65903 0.77885h5.6317c0.83877 0 1.3181 0.35947 1.3181 1.0185v5.8713c0 0.83876-0.47929 1.2581-1.378 1.2581h-5.452a0.7429 0.7429 0 0 0-0.77885 0.83877v9.5859c0 1.0784-0.59912 1.5577-1.7974 1.5577h-8.9268a1.2522 1.2522 0 0 1-1.4379-1.378v-10.005c0-0.41938-0.29956-0.59912-0.83876-0.59912h-20.55q-1.4379 0-1.4379-1.2581v-5.6916a2.6481 2.6481 0 0 1 0.41938-1.4379 15.577 15.577 0 0 1 1.378-1.9172l20.67-27.26a4.5593 4.5593 0 0 1 1.1982-1.0784zm-1.378 30.435c0.41938 0 0.59911-0.17974 0.59911-0.4793v-17.075c0-0.59912-0.0599-0.89868-0.17973-0.95859-0.11983-0.0599-0.35947 0.17973-0.77885 0.65903l-12.282 16.895c-0.47929 0.59912-0.29955 0.89867 0.4793 0.89867h12.102z" data-name="Path 7690"/>
   <path d="m434.42 299.68c2.2167-1.9172 3.9542-3.5348 5.3321-4.9128a31.669 31.669 0 0 0 3.2352-3.5348 10.784 10.784 0 0 0 1.6176-2.8158 8.6632 8.6632 0 0 0 0.41938-2.8158 6.2068 6.2068 0 0 0-1.0185-3.5947 6.7041 6.7041 0 0 0-2.696-2.2766 8.8729 8.8729 0 0 0-3.8943-0.83877 10.005 10.005 0 0 0-3.5348 0.65903 9.3522 9.3522 0 0 0-3.2951 2.2766 19.621 19.621 0 0 0-3.1753 4.2537 1.0005 1.0005 0 0 1-0.65903 0.53921 1.7075 1.7075 0 0 1-1.1383-0.23965l-6.111-3.1753a1.4139 1.4139 0 0 1-0.77885-1.0185 1.6596 1.6596 0 0 1 0.29956-1.2582 23.413 23.413 0 0 1 8.3277-8.148 22.077 22.077 0 0 1 10.784-2.5762 23.096 23.096 0 0 1 9.6458 1.8573 15.164 15.164 0 0 1 6.5304 5.3321 14.289 14.289 0 0 1 2.3366 8.2678 14.103 14.103 0 0 1-0.95858 5.2123 17.225 17.225 0 0 1-3.1154 4.9128 44.047 44.047 0 0 1-5.8114 5.3321l-12.641 9.9453c-0.29956 0.17974-0.4793 0.35947-0.41939 0.53921 0.0599 0.17973 0.29956 0.29955 0.83877 0.29955h21.269c0.83876 0 1.3181 0.35947 1.3181 1.0784v7.5489a1.4738 1.4738 0 0 1-0.29956 0.89868 1.2941 1.2941 0 0 1-1.0784 0.35947h-35.647a2.1448 2.1448 0 0 1-1.2582-0.29956 1.4379 1.4379 0 0 1-0.35947-1.1383v-5.2722a1.7974 1.7974 0 0 1 0.17974-0.77885 7.5609 7.5609 0 0 1 0.83876-1.1383 27.356 27.356 0 0 1 2.0969-1.8573l12.761-11.503z" data-name="Path 7691"/>
  </g>
 </g>
</svg>
