<svg xmlns:dc="http://purl.org/dc/elements/1.1/" xmlns:cc="http://creativecommons.org/ns#" xmlns:rdf="http://www.w3.org/1999/02/22-rdf-syntax-ns#" xmlns:svg="http://www.w3.org/2000/svg" xmlns="http://www.w3.org/2000/svg" version="1.1" width="400" height="500" id="svg4228"><metadata id="metadata14"><rdf:RDF><cc:Work rdf:about=""><dc:format>image/svg+xml</dc:format><dc:type rdf:resource="http://purl.org/dc/dcmitype/StillImage"/><dc:title/></cc:Work></rdf:RDF></metadata><defs id="defs4232"/><path d="M 400 0 C 402.4 233.5 340.6 395.1 200 500 59.4 395.1 -2.4 233.5 0 0 138.4 0 261.6 0 400 0 z" id="path3963" style="fill:#0085ca;fill-opacity:1;stroke:none"/><path d="m 192.18 58.53 -19.45 -35.64 -8.56 0 28.79 54.46 L 69.09 310.15 c 87.27 0 174.54 0 261.82 0 L 207.04 77.35 235.83 22.89 l -8.56 0 -19.45 35.64 7.78 -35.64 -7.16 0 L 200 56.97 l -8.44 -34.08 -7.16 0 z" id="path5331" style="fill:#fce300;fill-opacity:1;stroke:none"/><path d="m 154.82 312.15 20.85 -113.73 c 16.22 0 32.44 0 48.66 0 l 20.85 113.73" id="path5341" style="fill:none;stroke:#0085ca;stroke-width:2;stroke-linecap:butt;stroke-linejoin:round;stroke-miterlimit:4;stroke-opacity:1;stroke-dasharray:none"/><path d="M 192.33 131.2 200 96.18 l 7.67 35.01 c -5.11 0 -10.22 0 -15.34 0 z" id="path5345" style="fill:#0085ca;fill-opacity:1;stroke:none"/><path d="M 172.61 131.2 192 96.18 l -6.2 35.01 z" id="path5351" style="fill:#0085ca;fill-opacity:1;stroke:none"/><path d="M 227.39 131.2 208 96.18 l 6.2 35.01 z" id="path5357" style="fill:#0085ca;fill-opacity:1;stroke:none"/></svg>