<?xml version="1.0" encoding="UTF-8"?>
<svg width="471.58" height="685.35" version="1.1" viewBox="0 0 36.36 52.843" xmlns="http://www.w3.org/2000/svg" xmlns:cc="http://creativecommons.org/ns#" xmlns:dc="http://purl.org/dc/elements/1.1/" xmlns:rdf="http://www.w3.org/1999/02/22-rdf-syntax-ns#">
 <metadata>
  <rdf:RDF>
   <cc:Work rdf:about="">
    <dc:format>image/svg+xml</dc:format>
    <dc:type rdf:resource="http://purl.org/dc/dcmitype/StillImage"/>
   </cc:Work>
  </rdf:RDF>
 </metadata>
 <g>
  <path d="m18.18 52.843c3.246 0 6.2149-0.72152 8.819-2.1391 1.9973-1.0921 3.7453-2.563 5.2056-4.3824 2.5983-3.2518 4.1553-7.553 4.1553-11.506h-1.0683c0 0.35256-0.01558 0.71086-0.03854 1.0634l-0.71086 0.0057c0.02706-0.3583 0.04427-0.7166 0.04427-1.0692h-0.85763c0 3.3715-1.3348 7.0586-3.5773 9.8602-2.0227 2.5253-5.741 5.5393-11.972 5.5393-6.2354 0-9.9521-3.014-11.972-5.5393-2.2416-2.8016-3.5822-6.4887-3.5822-9.8602h-0.85189c0 0.35256 0.011479 0.71086 0.038536 1.0692l-0.70594-0.0057c-0.027057-0.3526-0.037716-0.7109-0.037716-1.0635h-1.0692c0 3.9528 1.5521 8.254 4.1578 11.506 1.4545 1.8194 3.2067 3.2903 5.1982 4.3824 2.6098 1.4176 5.5787 2.1391 8.8239 2.1391" fill="#0061ad" stroke-width=".81991"/>
  <path d="m28.626 14.084c-0.21482-0.11397-0.48293-0.25089-0.57886-0.29271-0.14348-0.06559-0.70348-0.32796-0.84697-0.39356-0.14266-0.05985-0.71578-0.30419-0.86337-0.3583-0.11397-0.041-0.48293-0.17874-0.72234-0.26237-0.07133-0.03034-0.13119-0.04755-0.16152-0.05985-0.13036-0.04755-0.64937-0.20252-0.84615-0.26237h-0.02378l-0.0246-0.0123c-0.14758-0.04099-1.7407-0.45341-2.3958-0.5723-0.57886-0.10741-1.1626-0.1853-1.7415-0.25007-0.14922-0.0123-0.77482-0.06559-0.93552-0.07789-0.09511-0.0066-0.1853-0.0066-0.27467-0.0066-0.04755 0-0.08937-0.0049-0.13118-0.01148h-0.05985c-0.16152-0.0123-0.78137-0.01804-0.94126-0.01804-0.15578 0-0.77564 0.0057-0.93716 0.01804h-0.06559c-0.03526 0.0066-0.08281 0.01148-0.12463 0.01148-0.08363 0-0.17956 0-0.27385 0.0066-0.15578 0.0123-0.78138 0.06559-0.93716 0.07789-0.58378 0.06477-1.1684 0.14922-1.7407 0.25007-0.65593 0.11889-2.2474 0.5313-2.3966 0.5723-0.15496 0.04838-0.75186 0.22712-0.89452 0.27467-0.15414 0.05411-0.73874 0.26893-0.87648 0.32222-0.14922 0.05411-0.72808 0.29845-0.87074 0.3583l-0.85271 0.39356c-0.09511 0.041816-0.36322 0.17874-0.57804 0.29271zm-19.138-4.9309c-0.070512-0.37552-0.19514-1.0003-0.31485-1.5964-0.11971-0.61329-0.24433-1.2397-0.32714-1.6743-0.018038-0.09429-0.036896-0.19022-0.054114-0.27385-0.047555-0.24433-0.077892-0.41651-0.08855-0.47063-0.041815-0.23203-0.20334-0.387-0.43537-0.387-0.035256 0-0.077072 0-0.12463 0.012299-0.25007 0.046735-0.36322 0.2263-0.36322 0.43455 0 0.041815 0 0.08937 0.011479 0.13119 0.012299 0.065593 0.065593 0.30419 0.13774 0.63789 0.023777 0.11889 0.053294 0.24925 0.082811 0.387 0.11889 0.56492 0.30337 1.3701 0.45833 2.0604 0.077891 0.35174 0.17874 0.75678 0.23285 1.0011zm17.272-0.077072c0.19514 0.065593 0.56984 0.19678 0.78465 0.26237 0.03608-0.16726 0.08281-0.38126 0.14266-0.62559 0.16644-0.73792 0.39274-1.7276 0.5354-2.3884 0.04182-0.20252 0.08281-0.38126 0.11971-0.53622l0.10085-0.48867c0.01148-0.040995 0.01148-0.08937 0.01148-0.13119 0-0.20744-0.11233-0.38618-0.36322-0.43455-0.04673-0.011479-0.08773-0.011479-0.12545-0.011479-0.23039 0-0.3911 0.15414-0.43373 0.387-0.01148 0.054114-0.04018 0.2263-0.08855 0.47063-0.01722 0.082811-0.03608 0.17874-0.05411 0.27467-0.04182 0.21974-0.09019 0.48129-0.1484 0.774-0.15496 0.83959-0.35174 1.876-0.48129 2.4474m-9.0994-1.3774c0.28041-0.00574 0.56574-0.00574 0.84533 0 0.0057-0.60755 0.01804-1.8645 0.02952-2.823 0.0123-0.72644 0.01804-1.316 0.01804-1.4176 0-0.28041-0.16644-0.48293-0.46407-0.48293-0.30993 0-0.47063 0.20908-0.47063 0.48293 0 0.095929 0.0057 0.5477 0.01148 1.1323 0 0.23203 0.0066 0.48211 0.0123 0.73792 0.0057 0.79203 0.01804 1.853 0.01804 2.3704m11.386 6.3822h3.3747v20.775c0 3.4666-1.6997 8.3762-5.6828 11.402-4.9777 3.8544-12.998 3.5379-17.344-0.11971-3.8765-3.0369-5.5336-7.8638-5.5336-11.282v-20.775h3.2616l-0.29189-1.056-0.024597-0.10085-0.012299-0.0246 0.12627-0.06559c0.010659-0.0057 0.023777-0.01148 0.040996-0.01804 0.077891-0.04182 0.17956-0.09593 0.29271-0.1484l-0.24433-0.96749-0.036076 0.01804c-0.12545 0.05985-0.23285 0.11315-0.27959 0.13774l-0.10167 0.04755-0.030337-0.10741-0.32222-1.1815-0.022957-0.07133 0.071332-0.03608c0.071332-0.03526 0.21974-0.11315 0.36322-0.18448l-2.0096-7.5243-0.017218-0.082811 0.077071-0.030337c0.1853-0.077072 0.36404-0.15496 0.54852-0.22712 0.1607-0.071332 0.32222-0.13119 0.48293-0.19104 0.023777-0.011479 0.048375-0.017218 0.072152-0.029517l0.10085-0.036075 0.023777 0.10167 0.25089 1.0265c0.14922-0.053294 0.29189-0.11315 0.44029-0.16644 0.10741-0.042635 0.2099-0.077891 0.31731-0.11397 0.052474-0.018038 0.10085-0.035256 0.15414-0.053294l-0.2263-1.056-0.018038-0.077892 0.077072-0.023777c0.1853-0.066413 0.38208-0.13119 0.56738-0.19104 0.19104-0.065593 0.38126-0.13037 0.57804-0.1853l0.095929-0.023777 0.017218 0.095929 0.20252 1.0314c0.054114-0.017218 0.10741-0.028697 0.15578-0.047555 0.10167-0.029517 0.2017-0.059853 0.30993-0.08937 0.082811-0.030337 0.173-0.053294 0.26155-0.077072 0.072152-0.018038 0.14348-0.041815 0.21564-0.059853l-0.17956-1.056-0.018038-0.083631 0.083631-0.018038c0.19678-0.059853 0.387-0.10741 0.58378-0.15496 0.10167-0.023777 0.19186-0.047555 0.28697-0.072152 0.09511-0.022958 0.19022-0.047555 0.29189-0.071332l0.09511-0.023777 0.01886 0.10167 0.4944 3.3354c1.3242-0.31075 2.7483-0.5723 4.257-0.72808l-0.18448-3.2878-0.0057-0.08937 0.08855-0.011479c0.20252-0.011479 0.99619-0.071332 1.1987-0.077891l0.09511-0.0057394 0.0066 0.09511 0.04182 1.056c0.05903 0 0.13692-0.00574 0.2263-0.00574 0.25089-0.011479 0.5723-0.024597 0.75104-0.024597l-0.011566-1.0675v-0.09511h0.39356c0.09511 0 0.19596-0.0057394 0.29763-0.0057394 0.09593 0 0.19678 0.0057394 0.29845 0.0057394h0.387v0.09511l-0.01148 1.0675c0.17874 0 0.48867 0.013119 0.73874 0.024597 0.09593 0 0.1853 0.00574 0.25089 0.00574l0.03608-1.056 0.0057-0.09511 0.09511 0.0057394c0.20334 0.0065593 0.99619 0.066413 1.1995 0.077891l0.08855 0.011479-0.0057 0.08937-0.19104 3.2878c1.484 0.15578 2.8976 0.40504 4.2037 0.71004l0.49441-3.3469 0.01722-0.10167 0.09593 0.022958c0.10249 0.024597 0.1976 0.049195 0.29353 0.072972 0.09511 0.022958 0.19022 0.046735 0.29189 0.071332 0.19596 0.047555 0.387 0.09511 0.58378 0.15414l0.08445 0.018858-0.01886 0.083631-0.17956 1.0552c0.07297 0.018038 0.1443 0.041815 0.21482 0.059853 0.09019 0.024597 0.17956 0.047555 0.26237 0.077072 0.10659 0.030337 0.20416 0.059853 0.30501 0.09019 0.04837 0.018038 0.10085 0.029517 0.15414 0.048375l0.20334-1.0323 0.01722-0.095929 0.09511 0.023777c0.19842 0.054114 0.38782 0.11971 0.5805 0.1853 0.18366 0.059854 0.37962 0.12545 0.56492 0.19104l0.07871 0.022957-0.01886 0.083631-0.22794 1.0511c0.05411 0.017218 0.10249 0.034436 0.1566 0.053294 0.10741 0.035256 0.20826 0.071332 0.31484 0.11397 0.15004 0.052474 0.29927 0.11233 0.44767 0.16562l0.25089-1.0257 0.02378-0.10085 0.10167 0.035256c0.02378 0.011479 0.04837 0.018038 0.07051 0.029517 0.16152 0.059853 0.32222 0.11971 0.48457 0.19104 0.17874 0.071332 0.35666 0.14922 0.54196 0.22712l0.07789 0.029517-0.01804 0.084451-2.0104 7.5169c0.15496 0.07133 0.31075 0.14266 0.45997 0.22056l0.07133 0.03608-0.0246 0.07133-0.35748 1.2889-0.10085-0.04755c-0.05411-0.0246-0.1607-0.07789-0.28041-0.13774-0.03608-0.01804-0.06559-0.03526-0.10167-0.05411l-0.26155 1.0388c0.10659 0.05329 0.20744 0.10167 0.27303 0.13118l0.12709 0.05985-0.0369 0.13118-0.29189 1.0503z" fill="#0061ad" stroke-width=".81991"/>
  <g fill="#ebebeb">
   <path d="m18.159 8.9235c-0.17218 0-0.83303 0.018038-0.99947 0.023777-0.15496 0.00574-0.30993 0.011479-0.47063 0.018038h-0.02952c-0.16726 0.012299-0.83385 0.065593-0.99373 0.082811-0.3337 0.036896-1.2979 0.16152-1.4586 0.1853-0.50588 0.077891-1.006 0.17874-1.5062 0.28615-0.32058 0.071332-1.2914 0.31485-1.4521 0.36322-0.1607 0.047555-0.79695 0.23695-0.95848 0.29189-0.15496 0.04755-0.77973 0.26811-0.94044 0.3214-0.15496 0.05985-0.76826 0.30419-0.9224 0.36896-0.15496 0.06559-0.7617 0.32796-0.91748 0.39274-0.09429 0.04837-0.38044 0.19186-0.61247 0.29845-0.077071 0.04181-0.1484 0.07789-0.20252 0.10085l-0.28532-1.0421c0.09511-0.04755 0.19022-0.08937 0.29107-0.1361 0.036076-0.01886 0.071332-0.03608 0.11315-0.05985 0.14922-0.07216 0.76826-0.35174 0.9224-0.4116 0.16152-0.064773 0.78629-0.32796 0.94126-0.38782 0.1607-0.059034 0.95847-0.34436 0.96421-0.34436 0.1607-0.053294 0.80269-0.26237 0.96421-0.30993 0.1607-0.047555 0.81581-0.2263 0.98799-0.27385 1.2971-0.3337 2.6368-0.57148 4.0118-0.70348 0.16644-0.011479 0.85107-0.065593 1.0183-0.077071 0.16644-0.00574 0.3214-0.018038 0.48785-0.023777h0.02952c0.16644-0.00574 0.33944-0.011479 0.5067-0.011479h0.25581c0.08281-0.00656 0.17218-0.00656 0.25499-0.00656 0.07707 0 0.16152 0 0.25007 0.00656h0.25007c0.173 0 0.34518 0.00574 0.51244 0.011479 0.173 0.00574 0.34518 0.018038 0.51162 0.023777 0.17218 0.011479 0.85025 0.065593 1.0175 0.077072 1.3758 0.13201 2.7147 0.36978 4.0241 0.70348 0.16152 0.041815 0.81663 0.2263 0.98143 0.27385 0.16152 0.047555 0.80351 0.25007 0.96503 0.30993 0.09511 0.029517 0.80351 0.28533 0.96421 0.34436 0.14266 0.054114 0.66085 0.26893 0.88222 0.3583 0.02214 0.012299 0.04674 0.018038 0.05821 0.029517 0.15496 0.05985 0.77318 0.33944 0.92322 0.4116 0.13692 0.06559 0.27303 0.13118 0.40422 0.19596l-0.29189 1.0421c-0.05247-0.02296-0.12545-0.05903-0.20252-0.09511-0.2263-0.11233-0.5108-0.25581-0.61411-0.30419-0.14758-0.06477-0.75432-0.32714-0.90846-0.39274-0.15004-0.06477-0.76908-0.30911-0.92896-0.36896-0.15496-0.05329-0.78629-0.27385-0.94126-0.3214-0.15988-0.054935-0.79695-0.24433-0.95192-0.29189-0.16644-0.048375-1.1257-0.29189-1.4529-0.36322-0.49932-0.10741-1.006-0.20334-1.5119-0.28615-0.1484-0.023777-1.1184-0.1484-1.4529-0.1853-0.16562-0.017218-0.82647-0.070512-0.99291-0.082811-0.16726-0.00656-0.33944-0.012299-0.50096-0.018038-0.16562-0.00574-0.83221-0.023777-0.99373-0.023777" stroke-width=".81991"/>
   <path d="m18.083 11.347c-0.15496 0-0.77973 0.01148-0.94044 0.01804-0.06559 0.0066-0.12545 0.0066-0.19104 0.01148-0.08855 0-0.19022 0.0057-0.28533 0.0123-0.15496 0.01148-0.77892 0.05985-0.94044 0.07707-0.58952 0.05985-1.1725 0.14266-1.7497 0.25007-0.66659 0.11971-2.2621 0.53048-2.4171 0.57804-0.15414 0.041-0.7494 0.23285-0.8978 0.27959-0.15578 0.05493-0.74448 0.26893-0.88714 0.32222-0.14922 0.05903-0.733 0.29763-0.87566 0.36322-0.1484 0.05985-0.71414 0.32796-0.85681 0.39274-0.12463 0.05985-0.55344 0.28041-0.7617 0.39356l-0.28615-1.0478c0.19596-0.09593 0.67889-0.33452 0.81007-0.3993 0.1484-0.07133 0.73136-0.33452 0.87402-0.39274 0.14922-0.06641 0.75022-0.30501 0.89288-0.3583 0.15496-0.05985 0.76252-0.27959 0.91092-0.32714 0.15496-0.05411 1.2323-0.37552 1.3938-0.41733 0.30337-0.08363 0.61821-0.15414 0.93388-0.22548 0.42225-0.09593 0.85107-0.1853 1.2733-0.25663 0.14922-0.02378 0.30419-0.04755 0.45833-0.06559 0.05985-0.0123 0.11315-0.01804 0.173-0.0246 0.3214-0.04673 0.63625-0.08855 0.95848-0.11807 0.1607-0.01804 1.2856-0.10167 1.4463-0.10741 0.16644-0.0057 0.80433-0.01804 0.96421-0.01804 0.15496 0 0.80351 0.0123 0.96421 0.01804 0.1607 0.0057 1.2914 0.08937 1.4463 0.10741 0.32222 0.02952 0.64281 0.07133 0.96503 0.11807 0.05247 0.0066 0.11233 0.0123 0.16644 0.0246 0.15496 0.01804 0.30337 0.04181 0.45833 0.06559 0.42799 0.07133 0.85107 0.1607 1.2741 0.25663 0.31484 0.07133 0.62395 0.14184 0.94044 0.22548 0.14922 0.04181 1.2323 0.36322 1.3856 0.41733 0.15004 0.05329 0.75678 0.26729 0.90436 0.32714 0.15578 0.05329 0.75104 0.29189 0.8937 0.3583 0.15414 0.05821 0.73792 0.3214 0.88058 0.39274 0.13774 0.06477 0.61985 0.30337 0.81581 0.3993l-0.29189 1.0478c-0.20826-0.11315-0.64281-0.3337-0.76088-0.39356-0.14348-0.06477-0.70922-0.33288-0.85845-0.39274-0.14266-0.06559-0.71988-0.30419-0.86828-0.36322-0.14922-0.05329-0.74448-0.26729-0.88714-0.32222-0.13692-0.04673-0.65511-0.20826-0.85025-0.26729-0.01886-0.0057-0.03772-0.0123-0.0492-0.0123-0.15332-0.04755-1.7546-0.45833-2.4155-0.57804-0.5846-0.10741-1.1667-0.19022-1.7571-0.25007-0.15332-0.01722-0.77891-0.06559-0.93962-0.07707-0.09593-0.0066-0.19104-0.0123-0.28615-0.0123-0.05985-0.0049-0.12463-0.0049-0.18448-0.01148-0.1607-0.0066-0.78547-0.01804-0.94617-0.01804" stroke-width=".81991"/>
   <path d="m12.715 35.155-0.71988-0.69692 13.054-13.069c0.1607-0.1607 0.32714-0.17874 0.44029-0.17874v0.03034c0 0.10659-0.01886 0.26237-0.16726 0.41733z" stroke-width=".81991"/>
   <path d="m18.611 18.117c0.04755-0.04181 0.08937-0.08937 0.12463-0.1361 0.05411-0.07789-0.03526-0.14348-0.09511-0.06559 0 0-0.0057 0-0.0057 0.0049-0.10659 0.15496-0.28533 0.26237-0.48785 0.26237s-0.387-0.10741-0.49441-0.26729v-0.0074c-0.05903-0.08281-0.14922-0.0049-0.08281 0.07871 0 0.0057 0.0057 0.0057 0.0057 0.01148 0.01804 0.03608 0.04755 0.06559 0.07707 0.09429-0.29189 0.41733-0.49359 1.2635-0.49359 2.0916 0 0.16644 0.0057 0.33944 0.02952 0.50588 0.02952 0.27467 0.11889 0.54196 0.20252 0.774 0.06559 0.19678 0.12463 0.3706 0.1484 0.519-0.09511 0-0.25007 0-0.39356-0.0057-0.07707 0-0.14266-0.0057-0.19596-0.0057h-0.04755c-0.15414-0.23859-0.47063-0.84041-0.58296-1.3471-0.09593-0.42881-0.13119-0.9347-0.1607-1.4053-0.02378-0.33944-0.04755-0.66741-0.09593-0.91174-0.04673-0.25499-0.21318-0.58378-0.45177-0.58378 0.23859 0.23368 0.01148 0.65511-0.35748 0.63789-0.11889 0-0.24351-0.02378-0.3624-0.05985-0.16726-0.04756-0.30993-0.19596-0.41159-0.38618-0.17218-0.32878-0.16644-0.73382 0.05985-1.0306 0.19596-0.26237 0.51818-0.41815 0.86336-0.41815 0.75596 0 1.2856 0.67971 1.3151 1.3947 0.08363-0.43537 0.22056-0.7453 0.44111-0.97651 0.52392-0.55508 1.4521-0.53704 1.9817-0.0066 0.22056 0.22056 0.39848 0.55426 0.39848 0.97733l-0.0057-0.0066c0.12545-0.62559 0.42881-1.0241 0.774-1.2266 0.42881-0.25089 0.98799-0.23285 1.3389 0.1361 0.13774 0.14348 0.23203 0.34026 0.25089 0.56082 0 0.02296 0.0057 0.05329 0.0057 0.08281 0 0.30993-0.13119 0.60181-0.32222 0.77482-0.22548 0.2017-0.5641 0.28533-0.82073 0.10085-0.16644-0.11889-0.23203-0.35092-0.10659-0.54852-0.26237-0.01722-0.4116 0.32304-0.45915 0.57804-0.04837 0.25745-0.07133 0.5723-0.09511 0.91174-0.03034 0.47063-0.06559 0.97651-0.16644 1.4053-0.11971 0.52474-0.3993 1.0782-0.56 1.3471-0.07707 0-0.25007 0-0.40504-0.0066-0.07625 0-0.15496-0.0066-0.20744-0.0066h-0.0123c0.02378-0.13692 0.07133-0.29107 0.12463-0.46407 0.07133-0.23777 0.15496-0.51818 0.19022-0.80433 0.01886-0.1607 0.0246-0.32714 0.0246-0.49441 0-0.80925-0.20252-1.6497-0.47637-2.0785" stroke-width=".81991"/>
   <path d="m18.044 16.269h-3.5773v-1.0183h7.1619v1.0183z"/>
   <g stroke-width=".81991">
    <path d="m9.6557 9.1052c-0.14922-0.75678-0.46981-2.3827-0.64281-3.2526-0.071332-0.387-0.13037-0.67315-0.14266-0.74448-0.053294-0.29189-0.26811-0.52392-0.59525-0.52392-0.047555 0-0.10085 0.00574-0.15496 0.018038-0.3337 0.065593-0.49933 0.31567-0.49933 0.59443 0 0.054114 0.00574 0.11397 0.017218 0.16726 0.018038 0.08937 0.10741 0.49441 0.22056 1.0249 0.19596 0.91666 0.5477 2.4474 0.69036 3.0968l-0.173 0.077892-0.35666 0.15414c-0.14348 0.065593-0.27959 0.11971-0.33944 0.14266-0.083631 0.036076-0.29763 0.13201-0.50588 0.22711l-0.36896 0.1607-1.9768-7.439c0.16152-0.065593 0.32796-0.13774 0.48785-0.20252 0.16152-0.065593 0.32222-0.12545 0.47637-0.1853l0.26237 1.0487 0.018038 0.077072 0.077071-0.029517c0.173-0.065593 0.35748-0.13693 0.5354-0.20252 0.10741-0.041815 0.20908-0.077072 0.31567-0.11315 0.077892-0.029517 0.15496-0.053294 0.23203-0.083631l0.059853-0.017218-0.011479-0.065593-0.23285-1.0716c0.16726-0.059853 0.3337-0.11397 0.5067-0.16726 0.16562-0.054114 0.32714-0.11315 0.49359-0.16152l0.20908 1.061 0.010659 0.077072 0.077891-0.023777c0.082811-0.023778 0.16644-0.047556 0.25007-0.077892 0.10167-0.029517 0.20252-0.059033 0.30911-0.08855 0.084451-0.023777 0.16726-0.048375 0.25581-0.071332 0.10167-0.030337 0.20334-0.059853 0.29845-0.084451l0.065593-0.017219-0.012299-0.065593-0.18448-1.0782c0.17218-0.047555 0.33944-0.08937 0.51818-0.13119 0.09429-0.022957 0.19022-0.047555 0.28533-0.071332 0.07133-0.017218 0.1484-0.034436 0.22056-0.053294l1.1364 7.5522c-0.23777 0.059853-0.774 0.20908-0.9224 0.25007-0.1484 0.048375-0.70266 0.214-0.91092 0.29271"/>
    <path d="m27.665 9.4749c0.14266-0.63789 0.50588-2.1859 0.70266-3.1099 0.11233-0.52884 0.2017-0.9347 0.22056-1.0241 0.01148-0.053294 0.01804-0.11315 0.01804-0.16644 0-0.28041-0.16726-0.52966-0.50096-0.59607-0.05247-0.011479-0.10659-0.017218-0.15414-0.017218-0.32714 0-0.54278 0.23203-0.59526 0.52392-0.01148 0.072152-0.07133 0.35748-0.14266 0.74448-0.17382 0.86992-0.49441 2.4958-0.64363 3.2468-0.26811-0.08937-0.54114-0.17956-0.82237-0.25663-0.17054-0.047555-0.82565-0.22712-0.99291-0.26811-0.0066 0-0.0123-0.00574-0.01804-0.00574l1.1364-7.5588c0.07297 0.018038 0.15004 0.036076 0.22056 0.053294 0.09593 0.023777 0.19104 0.048375 0.28697 0.072152 0.17792 0.040996 0.34436 0.082811 0.51736 0.13119l-0.18448 1.0782-0.0123 0.065593 0.06559 0.017218c0.09511 0.023777 0.19596 0.054114 0.29763 0.083631 0.08937 0.023777 0.17218 0.047555 0.25581 0.071332 0.10741 0.029517 0.20826 0.059853 0.30993 0.08937 0.08363 0.029517 0.16644 0.053294 0.24925 0.077072l0.07789 0.024597 0.01148-0.077072 0.20826-1.061c0.16808 0.048375 0.32714 0.10741 0.49441 0.1607 0.17218 0.053294 0.34026 0.10659 0.50588 0.16644l-0.23285 1.0724-0.01148 0.065593 0.05985 0.018858c0.07707 0.028697 0.15414 0.052474 0.23286 0.082811 0.10659 0.035256 0.20744 0.071332 0.31484 0.11315 0.17956 0.065593 0.36322 0.13692 0.5354 0.20252l0.07707 0.029517 0.01804-0.077072 0.26237-1.0487c0.15496 0.059853 0.31485 0.11889 0.47555 0.18448 0.16152 0.065593 0.32796 0.13692 0.48867 0.20252l-1.976 7.4333c-0.23859-0.11233-0.66085-0.29681-0.78629-0.35092-0.01722-0.00574-0.03526-0.012299-0.05821-0.024597-0.22056-0.08855-0.7453-0.30911-0.88714-0.36322-0.0057 0-0.01886-0.00574-0.0246-0.00574"/>
    <path d="m21.314 44.608c-0.22056-0.173-0.49441-0.27959-0.79777-0.27959-0.5354 0-0.99291 0.33288-1.1856 0.79777-0.11807-0.58378-0.63625-1.0314-1.2545-1.0314-0.61903 0-1.1372 0.44767-1.2561 1.0314-0.19022-0.46489-0.64937-0.79777-1.1848-0.79777-0.27303 0-0.52966 0.08855-0.73792 0.23859v-1.5078h6.4166z"/>
   </g>
   <path d="m17.944 28.321-0.36321 0.36321-0.25578-0.26152-5.6844-5.8968 0.36895-0.37062 5.6844 5.9099z"/>
   <g stroke-width=".81991">
    <path d="m15.891 42.266h4.5948c0.58952 0 0.82811 0.10741 0.82811 0.32714 0 0.2263-0.23859 0.32796-0.82811 0.32796h-4.6841c-0.59444 0-0.82647-0.10167-0.82647-0.32796 0-0.21974 0.23203-0.32714 0.82647-0.32714z"/>
    <path d="m18.667 7.7173c0.0057-0.98963 0.05411-3.9979 0.05985-4.2414v-0.011479c0-0.346-0.23285-0.63789-0.63051-0.63789-0.41734 0-0.63707 0.29845-0.63707 0.64937 0 0.13119 0.01148 0.96585 0.02378 1.8702 0.0123 0.82237 0.0123 1.8825 0.0123 2.3769-0.29189 0.011479-0.57804 0.023777-0.86992 0.047555-0.15414 0.012299-0.72562 0.047555-0.95848 0.071332l-0.43455-7.5407c0.24433-0.017218 0.81007-0.059034 1.0544-0.071332l0.041 1.0774v0.072152l0.07133-0.00574c0.05985 0 0.17874-0.00656 0.3214-0.012299 0.30993-0.00574 0.71496-0.023777 0.84615-0.023777h0.07133v-0.071332l-0.0123-1.0839c0.07133 0 0.1484 0 0.2263-0.005739h0.58952c0.07707 0.005739 0.15414 0.005739 0.22548 0.005739l-0.0057 1.0839v0.071332h0.06559c0.13037 0 0.51818 0.012299 0.82811 0.023777 0.1484 0.00574 0.27877 0.012299 0.34436 0.012299l0.07133 0.00574v-0.072152l0.03608-1.0774c0.25007 0.012299 0.81499 0.054114 1.0593 0.071332l-0.42311 7.5407c-0.24351-0.023777-0.78465-0.059034-0.93962-0.071332-0.34518-0.023777-0.69118-0.041815-1.0364-0.053294"/>
    <path d="m20.256 42.154h-4.2447c-0.53458 0-0.7494-0.10085-0.7494-0.32796 0-0.22056 0.21482-0.32058 0.7494-0.32058h4.2447c0.52966 0 0.7494 0.10003 0.7494 0.32058 0 0.22712-0.21974 0.32796-0.7494 0.32796"/>
   </g>
   <path d="m16.138 31.656 2.0596-2.2097 0.37469 0.37469 1.4873 1.5423 0.38211 9.9947h-4.6432z"/>
   <g stroke-width=".81991">
    <path d="m11.017 4.3829c1.3102-0.31567 2.7385-0.57804 4.2389-0.72644l0.23777 4.1873c-1.3217 0.13037-2.6131 0.35666-3.8634 0.67889z"/>
    <path d="m18.27 29.361 0.35174-0.3747 0.41652 0.4157 3.7265 3.8716c-0.06559 0.04837-0.12545 0.10167-0.19104 0.16726-0.06477 0.06641-0.12545 0.12545-0.17792 0.19022l-3.7453-3.8831z"/>
    <path d="m21.037 3.661c1.4775 0.14266 2.8877 0.40504 4.1856 0.70922l-0.61247 4.1332c-1.2397-0.30993-2.513-0.5354-3.8093-0.66085z"/>
   </g>
   <path d="m13.865 25.029-2.0957 2.026-0.91666-0.95356 0.63134-0.60758 0.54688 0.57145 0.38785-0.37469-0.5543-0.57232 0.69116-0.66739-0.36895-0.38043-0.69116 0.67314-0.55342-0.57145-0.38043 0.36895 0.54768 0.57145-0.63134 0.60837-0.91666-0.9593 2.0949-2.0252z"/>
   <path d="m19.472 22.121c0.54278 0 0.70266 0.12463 0.70266 0.33862 0 0.1607-0.09019 0.26237-0.3583 0.30993h-3.3682c-0.26811-0.04756-0.36322-0.14922-0.36322-0.30993 0-0.214 0.16726-0.33862 0.70266-0.33862z" stroke-width=".81991"/>
   <path d="m19.866 26.408-1.8333 1.835-0.25091-0.25665-1.475-1.53 0.12466-3.5863 3.2977 0.0066z"/>
   <g stroke-width=".81991">
    <path d="m19.514 10.163c-0.21892-0.01886-0.39848-0.03034-0.45751-0.03034-0.1607-0.0057-0.80925-0.02296-0.96995-0.02296-0.16152 0-0.80351 0.01722-0.97077 0.02296-0.05329 0-0.20252 0.01148-0.387 0.02378l-0.02952-1.0118h0.0057c0.15496-0.012299 0.30993-0.018858 0.46489-0.024597 0.16562-0.00574 0.82647-0.018038 0.99373-0.018038 0.1607 0 0.82155 0.012299 0.98717 0.018038 0.12545 0.00574 0.26319 0.012299 0.39274 0.018858z"/>
    <path d="m27.922 12.195c-0.15496-0.07133-0.29763-0.13037-0.36322-0.15988-0.1484-0.05985-0.74366-0.30419-0.89862-0.3583-0.15578-0.05985-0.76252-0.27385-0.91666-0.32714-0.04838-0.01804-0.17956-0.05985-0.346-0.10741l0.16644-1.0364c0.17956 0.05329 0.33944 0.10741 0.41242 0.13119 0.15906 0.04755 0.78465 0.26729 0.93388 0.32222 0.16152 0.05903 0.774 0.29681 0.92814 0.36322 0.05903 0.02296 0.1976 0.08281 0.346 0.1484z"/>
    <path d="m10.841 11.219c-0.20334 0.05903-0.36896 0.11315-0.42307 0.13037-0.14922 0.04837-0.7617 0.26893-0.91584 0.32796-0.14348 0.05411-0.75104 0.29763-0.90026 0.35748-0.052474 0.02378-0.15988 0.07133-0.28533 0.13119l-0.24925-0.96503c0.17874-0.07707 0.34518-0.14922 0.41569-0.17874 0.14922-0.06559 0.76252-0.30337 0.91748-0.36322 0.15414-0.05411 0.77973-0.27467 0.93388-0.32222 0.05985-0.02378 0.19678-0.06559 0.34518-0.10659z"/>
    <path d="m26.459 33.22c-0.06559 0.041-0.13119 0.09511-0.19678 0.1607-0.02952 0.03034-0.05985 0.05411-0.08281 0.08363-0.3214-0.23777-0.70184-0.3747-0.98799-0.3747-0.14266 0-0.26811 0.01722-0.38618 0.05329-0.1853 0.0533-0.34682 0.1484-0.45341 0.25581-0.12545 0.12545-0.1853 0.35748-0.07707 0.47719 0.0057-0.16726 0.10167-0.28615 0.25499-0.28615 0.08445 0 0.19104 0.06559 0.2099 0.2263 0.0057 0.02378 0.0057 0.04181 0.0057 0.05985 0 0.1484-0.10741 0.25581-0.25663 0.29763-0.04673 0.01804-0.10085 0.02378-0.15988 0.02378-0.16234 0-0.3214-0.07133-0.39274-0.20334-0.06559-0.11807-0.09019-0.23777-0.09019-0.34518 0-0.36896 0.31484-0.70266 0.79777-0.84533 0.15578-0.05411 0.3337-0.07789 0.51162-0.07789 0.39356 0 0.91174 0.1853 1.3037 0.49441"/>
    <path d="m22.716 37.853c0.06559-0.041 0.12955-0.09511 0.19514-0.1607 0.03034-0.02952 0.05985-0.05329 0.08445-0.08363 0.32058 0.23859 0.70184 0.37634 0.98717 0.37634 0.14348 0 0.26729-0.01886 0.387-0.05493 0.18448-0.0533 0.34518-0.1484 0.45341-0.25581 0.12381-0.12463 0.18366-0.35666 0.07707-0.47555-0.0057 0.16562-0.10167 0.28533-0.25663 0.28533-0.08281 0-0.1894-0.06559-0.20826-0.2263-0.0057-0.02378-0.0057-0.04181-0.0057-0.05903 0-0.14922 0.10741-0.25663 0.25499-0.29845 0.04838-0.01804 0.10249-0.02378 0.16152-0.02378 0.1607 0 0.3214 0.07133 0.39274 0.20252 0.06559 0.11971 0.09019 0.23859 0.09019 0.34518 0 0.36896-0.31648 0.70266-0.79777 0.84533-0.15578 0.05411-0.3337 0.07789-0.51326 0.07789-0.39192 0-0.9101-0.18448-1.302-0.49441"/>
    <path d="m19.202 45.631c-0.50014 0.03608-0.9224 0.35748-1.102 0.79941-0.11233-0.56082-0.60017-1.0011-1.1897-1.0306v-0.02378c0-0.63707 0.5231-1.1618 1.161-1.1618 0.63625 0 1.1602 0.52474 1.1602 1.1618 0 0.08937-0.01066 0.17136-0.02952 0.25499"/>
    <path d="m21.649 45.846c-0.4985 0.03526-0.93306 0.35748-1.111 0.80433-0.11397-0.55426-0.60263-0.98881-1.1856-1.02v-0.02296c0-0.63707 0.52474-1.1618 1.161-1.1618 0.63707 0 1.1602 0.52474 1.1602 1.1618 0 0.08363-0.0057 0.1607-0.0246 0.23859"/>
    <path d="m24.077 46.067c-0.4985 0.03526-0.92158 0.35666-1.0995 0.80351-0.11397-0.56-0.60181-1.0011-1.1913-1.0298v-0.0246c0-0.63707 0.52474-1.1618 1.161-1.1618 0.63707 0 1.1602 0.52474 1.1602 1.1618 0 0.09019-0.01148 0.173-0.03034 0.25089"/>
    <path d="m15.571 46.833v0.08363c-0.58296 0.02952-1.0716 0.45751-1.1848 1.0175-0.17792-0.44685-0.61247-0.77318-1.1126-0.80351-0.0123-0.03608-0.01804-0.07789-0.01804-0.11889v-0.0074c-0.0057-0.03526-0.0057-0.07051-0.0057-0.10577 0-0.63789 0.52392-1.1618 1.1602-1.1618 0.58952 0 1.0839 0.44603 1.1553 1.0175 0 0.0246 0 0.04919 0.0057 0.07871"/>
    <path d="m18.005 46.6v0.08363c-0.58952 0.02952-1.0782 0.46407-1.1905 1.0306-0.17874-0.44111-0.60181-0.76252-1.1011-0.79777-0.0123-0.04264-0.01804-0.08445-0.0246-0.132v-0.02952c-0.0057-0.03034-0.0057-0.05985-0.0057-0.08937 0-0.63789 0.52392-1.1618 1.161-1.1618 0.5887 0 1.0839 0.44767 1.1553 1.0191 0 0.02296 0 0.04756 0.0057 0.07707"/>
    <path d="m25.402 47.004c-0.1484-0.51818-0.61247-0.91092-1.1725-0.94126v-0.02214c0-0.63789 0.52474-1.1626 1.161-1.1626 0.63707 0 1.161 0.52474 1.161 1.1626 0 0.07625-0.0057 0.14758-0.02378 0.21974-0.3583 0.26811-0.73218 0.51244-1.1257 0.74366"/>
    <path d="m18.826 48.853c-0.2263 0.0057-0.45259 0.01148-0.67888 0.01148-0.28533 0-0.56574-0.0057-0.83877-0.01804-0.24433-0.21318-0.3993-0.52966-0.3993-0.87566 0-0.63625 0.52392-1.161 1.161-1.161s1.161 0.52474 1.161 1.161c0 0.35256-0.15988 0.66823-0.40504 0.88222"/>
    <path d="m9.5898 46.127c0-0.0074 0.00574-0.07789 0.00574-0.08363 0-0.63707 0.52474-1.1618 1.161-1.1618 0.56574 0 1.0478 0.42307 1.143 0.95929-0.58296 0.03526-1.0708 0.46981-1.184 1.0298-0.20252-0.13037-0.47637-0.29107-0.71496-0.45259-0.13692-0.09511-0.27385-0.17874-0.41077-0.29107"/>
    <path d="m16.77 45.4c-0.58952 0.03526-1.0716 0.46981-1.1848 1.0306-0.18448-0.44685-0.61247-0.76908-1.1192-0.79941v-0.02296c0-0.63707 0.52392-1.1618 1.161-1.1618 0.56492 0 1.0478 0.41733 1.143 0.95356"/>
    <path d="m20.579 46.917c0.10659-0.53048 0.58296-0.94208 1.1421-0.94208 0.63707 0 1.161 0.52474 1.161 1.1618-0.5067 0.0246-0.94126 0.346-1.1249 0.79777-0.11233-0.55344-0.59526-0.98143-1.1782-1.0175"/>
    <path d="m14.343 45.631c-0.58378 0.03608-1.0708 0.46489-1.1848 1.0191-0.18448-0.45259-0.61903-0.774-1.1241-0.80351v-0.02378c0-0.63789 0.52392-1.1618 1.1602-1.1618 0.57066 0 1.0536 0.42881 1.1487 0.96995"/>
    <path d="m18.185 46.553c0.13037-0.43619 0.51736-0.76334 0.98799-0.81089 0.04099-0.0057 0.07707-0.0057 0.11807-0.0057 0.59034 0 1.0839 0.44603 1.1553 1.0183 0 0.02378 0 0.04838 0.0057 0.07789v0.08363c-0.50588 0.0287-0.93388 0.35092-1.1184 0.79777-0.11315-0.56082-0.59608-0.99537-1.1782-1.0306 0.0049-0.02952 0.01148-0.06559 0.02296-0.09511 0-0.0123 0.0066-0.02378 0.0066-0.03526"/>
    <path d="m16.621 48.807c-0.74366-0.07215-1.4521-0.18448-2.1309-0.35174-0.0123-0.07707-0.02378-0.1607-0.02378-0.24351 0-0.63789 0.52392-1.1618 1.1602-1.1618 0.63707 0 1.161 0.52392 1.161 1.1618 0 0.214-0.05903 0.41652-0.16644 0.59526"/>
    <path d="m21.638 48.495c-0.66659 0.14922-1.375 0.26237-2.1129 0.32222-0.10659-0.17874-0.17218-0.387-0.17218-0.60755 0-0.63707 0.52392-1.161 1.161-1.161s1.1594 0.52392 1.1594 1.161c0 0.09511-0.01066 0.19022-0.03526 0.28533"/>
    <path d="m10.826 46.969c0.07707-0.56574 0.56492-1.0068 1.1487-1.0068 0.58952 0 1.0831 0.44685 1.1544 1.0191 0 0.02296 0 0.04755 0.0057 0.07707v0.08363c-0.39274 0.01804-0.74366 0.22056-0.96422 0.52392-0.47059-0.20908-0.92236-0.44029-1.3446-0.69692"/>
    <path d="m24.026 47.714c-0.214-0.32222-0.57722-0.5477-0.99455-0.5723 0.0074-0.03526 0.01148-0.06477 0.0246-0.09511 0-0.0123 0.0057-0.01804 0.0057-0.02952 0.13118-0.43537 0.52392-0.77482 0.99373-0.82155 0.04182-0.0074 0.07707-0.0074 0.12053-0.0074 0.54114 0 1.0052 0.38208 1.1307 0.88878-0.40586 0.23285-0.83467 0.44685-1.2807 0.63707"/>
    <path d="m12.168 35.668c-0.82729 0.88796-1.4701 1.3283-1.8628 1.5013-0.07133-0.12463-0.17218-0.2263-0.30337-0.29189 0.1607-0.41078 0.57722-1.0667 1.4283-1.912z"/>
   </g>
   <path d="m11.383 34.032 0.43459 0.42884 1.3635 1.3045-0.37469 0.38697-1.7981-1.7398z"/>
   <path d="m29.342 47.323c0.13692-0.11971 0.15824-0.22384 0.05002-0.34354-0.05411-0.06477-0.16808-0.12955-0.32058 0.0066l-0.32058 0.28779 0.29353 0.3255zm-1.0126-0.05165 0.61903-0.5641c0.3255-0.29353 0.60345-0.11397 0.69446-0.01148 0.11971 0.1361 0.15742 0.30911 0.07051 0.46161 0.14184-0.04919 0.22876-0.06559 0.43373 0.16316 0.16234 0.17382 0.20088 0.21728 0.27221 0.19022l0.0328 0.02706-0.28779 0.25991c-0.06559-0.04263-0.13528-0.09265-0.24515-0.21728-0.15168-0.16234-0.21646-0.21646-0.40586-0.04838l-0.26647 0.24433 0.42881 0.46735-0.25007 0.22794z" stroke-width=".81991"/>
   <path d="m23.9 47.746c-0.66085 0.27959-1.3635 0.51244-2.1137 0.69692v-0.03608c0-0.63707 0.52392-1.161 1.161-1.161 0.39274 0 0.74366 0.20252 0.95274 0.50014" stroke-width=".81991"/>
   <path d="m6.4827 46.279-0.58054-0.65679-0.25578 0.22794 0.53213 0.60263-0.21151 0.19101-0.53787-0.60263-0.314 0.27627 0.61332 0.68956-0.21725 0.19022-0.83549-0.93962 1.2094-1.0806 0.81418 0.91175z"/>
   <path d="m14.35 48.405c-0.73792-0.18448-1.4291-0.41651-2.0777-0.70266 0.20826-0.27467 0.54196-0.45341 0.91666-0.45341 0.63707 0 1.161 0.52474 1.161 1.1561" stroke-width=".81991"/>
   <path d="m8.9737 48.462-0.70512-0.5149-0.20665 0.27053 0.65679 0.47885-0.17379 0.23289-0.65104-0.47797-0.24437 0.34271 0.7379 0.53787-0.16804 0.23368-1.015-0.73957 0.95519-1.3135 0.98799 0.7166z"/>
   <path d="m1.0995 39.201 1.5365-0.5362 0.11892 0.30993-0.81582 1.0183 1.0356-0.36895 0.10169 0.31567-1.5365 0.5354-0.11804-0.32716 0.82646-0.99456-1.047 0.36895z"/>
   <path d="m2.4029 42.56 1.4767-0.69778 0.50015 1.0724-0.23863 0.11317-0.36895-0.76166-0.35667 0.17299 0.30339 0.64195-0.23863 0.11971-0.30913-0.65511-0.63709 0.30339z"/>
   <g stroke-width=".81991">
    <path d="m4.0057 44.918 0.173 0.25007c0.13037 0.18448 0.34518 0.23859 0.64855 0.03608 0.17218-0.11889 0.25007-0.23859 0.27385-0.33944 0.041815-0.11889 0.036076-0.2263-0.082811-0.38126l-0.13119-0.19022zm-0.43455-0.11889 1.3455-0.94044 0.41077 0.57722c0.19596 0.28041 0.15496 0.7207-0.29189 1.0298-0.42881 0.29845-0.85681 0.19678-1.047-0.08855z"/>
    <path d="m33.608 41.867c0.38044 0.19022 0.42881 0.5108 0.24351 0.87976-0.06969 0.14184-0.20088 0.32632-0.4116 0.38618-0.13118 0.03772-0.26073 0.01066-0.4075-0.05985l-0.96585-0.47801 0.1566-0.32058 0.94454 0.47227c0.20088 0.10331 0.35338 0.02706 0.42307-0.11971 0.10413-0.21154 0.05001-0.34682-0.12955-0.43947l-0.95438-0.47227 0.1566-0.31976z"/>
    <path d="m23.32 10.68c-0.40422-0.08937-0.80925-0.17874-1.2151-0.24433-0.15414-0.02378-0.30911-0.04756-0.46325-0.07133-0.02952-0.0057-0.05985-0.0057-0.09511-0.01148l0.07133-1.0191c0.22056 0.030337 0.39274 0.054114 0.45177 0.059853 0.46571 0.077072 0.91666 0.16152 1.3758 0.25581z"/>
    <path d="m14.689 10.349c-0.05903 0.01148-0.11315 0.01804-0.17218 0.02378-0.15496 0.02378-0.30993 0.04756-0.45915 0.07133-0.38618 0.06559-0.774 0.14266-1.1487 0.22712l-0.11889-0.99537c0.47637-0.10167 0.95848-0.19678 1.4414-0.27385 0.05329-0.00574 0.19596-0.029517 0.38044-0.053294z"/>
    <path d="m34.32 41.032 0.11971-0.31484c0.09839-0.26647-0.13119-0.45095-0.38618-0.5436-0.44439-0.16726-0.5641 0.03854-0.61247 0.17956l-0.11971 0.30911zm-1.3717-0.17628 0.25335-0.68954c0.19678-0.52064 0.67397-0.46653 0.96175-0.36322 0.32632 0.12463 0.7494 0.42881 0.56 0.9388l-0.25089 0.67397z"/>
   </g>
   <path d="m31.365 46.447-0.22795 0.26072-1.0044-0.87976-0.33042 0.37389-0.21814-0.18942 0.88469-1.0159 0.21813 0.19022-0.32636 0.37964z"/>
   <path d="m32.988 44.257-0.18367 0.2935-1.1282-0.71166-0.26646 0.4239-0.2435-0.15249 0.71661-1.1454 0.24349 0.1517-0.26646 0.42964z"/>
   <g stroke-width=".81991">
    <path d="m35.012 38.836c0.04427-0.17874 0-0.46079-0.44439-0.56984-0.44029-0.10905-0.61411 0.11971-0.65675 0.29845-0.04427 0.18448 0 0.46653 0.44439 0.57558 0.44029 0.10823 0.61411-0.11971 0.65675-0.30419m-1.3774-0.35584c0.05001-0.21154 0.28205-0.7494 1.02-0.56492 0.73956 0.18448 0.68954 0.76498 0.63543 0.97733-0.04837 0.21154-0.28205 0.74858-1.02 0.56984-0.73792-0.18448-0.68954-0.76498-0.63543-0.98225"/>
    <path d="m18.597 22.002h-0.91666c-0.01804-0.17874-0.08937-0.3747-0.1607-0.58296-0.07707-0.23285-0.16726-0.48293-0.19678-0.7453-0.01804-0.15988-0.02952-0.3214-0.02952-0.48867 0-0.80351 0.20252-1.6136 0.46407-2.0006 0.0057 0.0057 0.01148 0.0057 0.01804 0.01148 0.10659 0.06559 0.23204 0.10167 0.36896 0.10167 0.13118 0 0.24925-0.03608 0.35092-0.10167 0.25089 0.39356 0.45259 1.2094 0.45259 2.0014 0 0.1607-0.0123 0.32222-0.0287 0.48293-0.03034 0.26811-0.10823 0.52966-0.18612 0.77973-0.05903 0.19104-0.11233 0.3747-0.1361 0.54196"/>
    <path d="m28.174 49.128c0.15086-0.10823 0.30337-0.35256 0.04264-0.72234-0.26647-0.3747-0.54278-0.31484-0.69364-0.2058-0.1525 0.10823-0.30501 0.35174-0.04428 0.72234 0.26073 0.3747 0.54278 0.31484 0.69528 0.2058m-0.82729-1.1421c0.17874-0.12627 0.70512-0.38618 1.1454 0.23777 0.43865 0.62477 0.01558 1.0323-0.16398 1.1569-0.17956 0.13037-0.7002 0.38618-1.1397-0.23859-0.44029-0.62477-0.02214-1.0323 0.15824-1.1561"/>
    <path d="m14.744 51.471c-0.09265 0.41815-0.39028 0.53786-0.79777 0.45095-0.14676-0.0328-0.36404-0.11971-0.47145-0.30911-0.06641-0.11479-0.07133-0.25007-0.03936-0.41323l0.23449-1.0478 0.34108 0.07543-0.22794 1.0323c-0.04837 0.2181 0.05985 0.34272 0.21728 0.38044 0.23367 0.04838 0.35338-0.03771 0.39602-0.22875l0.23368-1.047 0.3419 0.07543z"/>
   </g>
   <path d="m3.0165 43.871 1.4578-0.7379 0.14922 0.30339-1.4578 0.7379z"/>
   <path d="m0.83773 38.403 0.10081 0.32795 1.5546-0.48946-0.09595-0.32141z"/>
   <path d="m22.203 37.294c-0.28615-0.38782-0.41733-0.83959-0.41733-1.2217 0-0.18448 0.02378-0.36322 0.07133-0.52392 0.15496-0.49441 0.50014-0.82237 0.8691-0.82237 0.11971 0 0.23941 0.03034 0.36896 0.10823 0.11971 0.07133 0.19104 0.21974 0.19104 0.3747 0 0.05985-0.01148 0.11315-0.0246 0.16726-0.02296 0.07051-0.05821 0.1361-0.10659 0.18448-0.10741 0.10167-0.26237 0.10741-0.38208 0.02952-0.07133-0.04755-0.10659-0.11889-0.10659-0.17218 0-0.15578 0.13119-0.25007 0.29927-0.25663-0.25089-0.07133-0.34682-0.02378-0.46653 0.04181-0.11807 0.11315-0.23614 0.29189-0.29599 0.49359-0.03526 0.12627-0.05985 0.25663-0.05985 0.40012 0 0.27385 0.11971 0.61903 0.3337 0.93552-0.09593 0.07133-0.19104 0.15988-0.27385 0.26155" stroke-width=".81991"/>
   <path d="m26.97 33.787c0.28533 0.387 0.41569 0.84041 0.41569 1.2208 0 0.1853-0.02378 0.36404-0.07051 0.52474-0.15414 0.49441-0.50014 0.82155-0.8691 0.82155-0.11971 0-0.23859-0.02952-0.36896-0.10659-0.11971-0.07215-0.19104-0.22056-0.19104-0.37634 0-0.05903 0.0123-0.11151 0.02378-0.16562 0.0246-0.07215 0.05985-0.13774 0.10741-0.18448 0.10823-0.10167 0.26155-0.10741 0.38126-0.03034 0.07133 0.04756 0.10741 0.11889 0.10741 0.173 0 0.15496-0.13119 0.25007-0.29845 0.25581 0.25089 0.07133 0.34518 0.02378 0.46489-0.041 0.11971-0.11397 0.23777-0.29189 0.29763-0.49522 0.03526-0.12545 0.05821-0.25581 0.05821-0.39848 0-0.27467-0.11807-0.61985-0.33206-0.93552 0.09593-0.07133 0.19022-0.16152 0.27385-0.26237" stroke-width=".81991"/>
   <path d="m22.917 51.146 0.40747-0.11971-0.37637-0.55917zm-0.0311 0.67393-0.35172 0.10249 0.12378-1.7276 0.3845-0.10743 1.0044 1.4004-0.35746 0.10328-0.19516-0.2927-0.58541 0.16804z"/>
   <path d="m9.2753 50.14-0.29844-0.17379 0.66739-1.1569-0.43371-0.25003 0.14595-0.24924 1.1667 0.67888-0.14595 0.24924-0.43459-0.25498z"/>
   <path d="m32.291 45.358-0.20664 0.27627-1.302-0.96586 0.20665-0.27715z"/>
   <path d="m26.459 50.374-0.30339 0.16892-0.7765-1.4283 1.0356-0.56491 0.14268 0.25578-0.73383 0.39598 0.17379 0.32062 0.64116-0.34765 0.13526 0.25498-0.63956 0.34845z"/>
   <path d="m20.624 52.273-0.34191 0.04307-0.15823-1.3299-0.49281 0.05902-0.03828-0.28776 1.3406-0.15744 0.0327 0.28776-0.49847 0.05982z"/>
   <path d="m15.518 51.703c-0.01066 0.08691 0.0164 0.26565 0.31484 0.29845 0.16316 0.01558 0.35256 0 0.36978-0.1689 0.01558-0.12955-0.10413-0.17382-0.27713-0.23368l-0.16808-0.06477c-0.26073-0.08609-0.5108-0.17956-0.47227-0.53212 0.02132-0.17874 0.15742-0.48293 0.68872-0.42389 0.50506 0.05493 0.60263 0.39684 0.58624 0.59198l-0.33124-0.03772c0-0.07051-0.01066-0.24433-0.30829-0.27713-0.13119-0.0164-0.29353 0.01148-0.30993 0.15742-0.0164 0.12463 0.08691 0.1689 0.15824 0.1894l0.38454 0.14184c0.22302 0.08199 0.41815 0.19514 0.38536 0.48375-0.05411 0.48867-0.56492 0.47227-0.71086 0.45587-0.59689-0.07051-0.66249-0.42389-0.64117-0.61903z" stroke-width=".81991"/>
   <path d="m12.803 51.187c-0.10823 0.32632-0.33616 0.42881-0.65183 0.32058-0.52064-0.17382-0.4116-0.50014-0.31485-0.79285l0.30993 0.10331c-0.08117 0.23941-0.10823 0.36404 0.07051 0.42389 0.16808 0.05985 0.21728-0.04427 0.25499-0.16398l0.36896-1.0913 0.33124 0.10905z" stroke-width=".81991"/>
   <path d="m16.172 30.084 0.09507-2.5909 0.96422 1.0068 0.26152 0.26152z"/>
   <path d="m17.83 52.402-0.34765-0.0049 0.0327-1.3365-0.50015-0.01037 0.0057-0.28776 1.3463 0.02712-0.0057 0.28776-0.49935-0.01037z"/>
   <path d="m19.907 27.623 0.09595 2.6147-0.87567-0.91092-0.41648-0.4231z"/>
   <g stroke-width=".81991">
    <path d="m22.357 34.252c-0.03526-0.04181-0.05411-0.08937-0.05411-0.14266 0-0.14266 0.11397-0.35748 0.35748-0.58952 0.23203-0.22712 0.44603-0.33944 0.59525-0.33944 0.05903 0 0.10741 0.01722 0.1484 0.05903 0.03526 0.04182 0.05411 0.08363 0.05411 0.14266 0 0.14348-0.11397 0.36322-0.35748 0.59608-0.23203 0.21974-0.44603 0.33288-0.5887 0.33288-0.06559 0-0.11397-0.02296-0.15496-0.05903"/>
    <path d="m28.052 12.264 0.26811-1.0241c0.17956 0.07707 0.35174 0.15496 0.41733 0.18448 0.06559 0.03034 0.21892 0.10167 0.3747 0.17874l-0.25663 1.0429c-0.17218-0.08363-0.33944-0.16726-0.40996-0.20252-0.06559-0.03034-0.22712-0.10823-0.39356-0.17956"/>
    <path d="m7.9479 11.277 0.25007 0.96421c-0.19022 0.08363-0.38044 0.173-0.45751 0.20826-0.059854 0.03034-0.19596 0.09593-0.33944 0.16726l-0.24433-0.97077c0.17874-0.08937 0.36322-0.17874 0.43455-0.214 0.059033-0.03034 0.20252-0.09019 0.35666-0.15496"/>
    <path d="m24.422 10.938 0.1484-1.0126c0.21318 0.054114 0.39848 0.10167 0.45833 0.11889 0.06559 0.01886 0.22548 0.06641 0.39356 0.11397l-0.16808 1.0298c-0.30337-0.08855-0.66659-0.2017-0.83221-0.25007"/>
    <path d="m24.429 9.9066-0.15004 1.0126c-0.26155-0.07133-0.52802-0.13037-0.79613-0.19022l0.12381-1.0241c0.17382 0.035256 0.519 0.11889 0.82237 0.2017"/>
    <path d="m11.975 10.891-0.14266-0.97651c0.28533-0.077072 0.61903-0.16152 0.82155-0.20908l0.11889 0.99537c-0.26811 0.05903-0.5354 0.12463-0.79777 0.19022"/>
    <path d="m11.697 9.9511 0.14266 0.97651c-0.10741 0.02952-0.48785 0.14922-0.83303 0.25007l-0.1607-0.98881c0.19022-0.05903 0.38618-0.11889 0.46325-0.1361 0.05493-0.01804 0.20334-0.054114 0.38782-0.10167"/>
    <path d="m26.123 34.074c-0.0369-0.03608-0.05411-0.08445-0.05411-0.13692 0-0.11889 0.08937-0.28615 0.27303-0.46489 0.1853-0.17874 0.34682-0.25581 0.46489-0.25581 0.05985 0 0.10823 0.01804 0.14922 0.05985 0.03608 0.04099 0.05329 0.08855 0.05329 0.14266 0 0.11315-0.08281 0.28041-0.26811 0.45833-0.18366 0.17792-0.3501 0.26237-0.46981 0.26237-0.05903 0-0.10741-0.01804-0.1484-0.06559"/>
    <path d="m23.057 37.011c0.03526 0.03526 0.05247 0.08281 0.05247 0.13692 0 0.11889-0.08773 0.28615-0.27303 0.46407-0.1853 0.17874-0.34518 0.25663-0.46489 0.25663-0.05985 0-0.10659-0.01804-0.14922-0.05985-0.03444-0.04099-0.05248-0.08937-0.05248-0.14266 0-0.11315 0.08199-0.28041 0.26729-0.45915 0.18366-0.17874 0.35174-0.26155 0.46981-0.26155 0.06067 0 0.10741 0.01722 0.15004 0.06559"/>
    <path d="m20.608 10.244 0.041-1.0191c0.17874 0.018038 0.53048 0.059853 0.84533 0.10085l-0.07707 1.0191c-0.27386-0.03526-0.53541-0.07133-0.80926-0.10085"/>
    <path d="m15.609 9.2327 0.04181 1.0011c-0.26811 0.0287-0.53622 0.06477-0.81007 0.10085l-0.07707-1.0003c0.29189-0.036076 0.63051-0.077891 0.84533-0.10167"/>
    <path d="m9.7482 37.888c-0.25581 0-0.46489-0.20908-0.46489-0.46489s0.21482-0.47063 0.46489-0.47063c0.26155 0 0.46981 0.21482 0.46981 0.47063s-0.20826 0.46489-0.46981 0.46489"/>
    <path d="m20.511 9.2167-0.05411 1.0126c-0.15004-0.01148-0.48867-0.03608-0.79777-0.05411l0.02952-1.0298c0.16152 0.011479 0.58296 0.046735 0.82237 0.071332"/>
    <path d="m15.785 10.22-0.05329-1.0011c0.17792-0.017218 0.59526-0.052474 0.82155-0.071332l0.02952 1.0183c-0.28534 0.01886-0.6133 0.04263-0.79778 0.05411"/>
    <path d="m25.677 37.063c-0.20826 0-0.3747-0.16726-0.3747-0.37552 0-0.20252 0.16644-0.36896 0.3747-0.36896 0.20908 0 0.36896 0.1607 0.36896 0.36896s-0.16562 0.37552-0.36896 0.37552"/>
    <path d="m23.147 34.388c0.01148-0.2017 0.17218-0.35748 0.36896-0.35748h0.01722c0.20334 0.0066 0.36322 0.17956 0.36322 0.37634v0.01066c-0.0057 0.20334-0.17136 0.36404-0.3747 0.36404h-0.01148c-0.20252-0.0123-0.36322-0.17956-0.36322-0.38126z"/>
   </g>
   <path d="m21.345 50.518 0.30498 1.5972 0.34112-0.0654-0.30913-1.5955z"/>
   <path d="m11.226 21.973c-0.14266 0-0.25581-0.11315-0.25581-0.25581 0-0.14348 0.11315-0.25581 0.25581-0.25581s0.25499 0.11233 0.25499 0.25581c0 0.14266-0.11233 0.25581-0.25499 0.25581" stroke-width=".81991"/>
   <path d="m11.909 22.088-0.34518 0.346-0.173-0.36404c0.07133-0.04181 0.12545-0.09511 0.16726-0.1607z" stroke-width=".81991"/>
   <path d="m18.797 50.779 0.07657 1.6234 0.34111-0.01675-0.07018-1.6177z"/>
   <path d="m16.756 48.812c0.05985-0.11315 0.10741-0.23204 0.13119-0.35748 0.05903 0.14266 0.14266 0.26811 0.24351 0.38126-0.12463-0.0057-0.25007-0.01804-0.3747-0.02378" stroke-width=".81991"/>
   <path d="m19.018 48.846c0.10659-0.11315 0.19022-0.24433 0.24925-0.38782 0.0246 0.13118 0.07133 0.25007 0.13692 0.36322-0.13037 0.01148-0.25581 0.01886-0.38618 0.0246" stroke-width=".81991"/>
  </g>
 </g>
</svg>
